<?xml version="1.0" encoding="utf-8"?>
<!-- Generator: Adobe Illustrator 22.1.0, SVG Export Plug-In . SVG Version: 6.00 Build 0)  -->
<svg version="1.1" id="Capa_1" xmlns="http://www.w3.org/2000/svg" xmlns:xlink="http://www.w3.org/1999/xlink" x="0px" y="0px"
	 viewBox="0 0 1024 768" style="enable-background:new 0 0 1024 768;" xml:space="preserve">
<style type="text/css">
	.st0{fill:#CB3234;stroke:#000000;stroke-miterlimit:10;}
	.st1{fill:none;}
	.st2{fill:#FFFF00;}
	.st3{fill:#FFFFFF;}
	.st4{fill:none;stroke:#000000;stroke-miterlimit:10;}
	.st5{fill:#1B1B1B;}
	.st6{fill:#FFFF00;stroke:#000000;stroke-miterlimit:10;}
	.st7{fill:none;stroke:#000000;stroke-width:10;stroke-miterlimit:10;}
	.st8{font-family:'MyriadPro-Bold';}
	.st9{font-size:19.0834px;}
	.st10{fill:#2D572C;stroke:#000000;stroke-miterlimit:10;}
	.st11{fill:#00FF00;}
	.st12{fill:#3E663C;stroke:#000000;stroke-miterlimit:10;}
	.st13{fill:#336633;stroke:#000000;stroke-miterlimit:10;}
	.st14{fill:#50774D;stroke:#000000;stroke-miterlimit:10;}
	.st15{fill:#668962;stroke:#000000;stroke-miterlimit:10;}
	.st16{fill:#020202;}
	.st17{font-size:22.1603px;}
</style>
<path class="st0" d="M517.4,444.5l-306.7,52.2c-3.7-17.2-5.5-34.7-5.5-52.2c0-59.8,21.4-118,61.1-166.1L517.4,444.5z"/>
<path id="SVGID_x5F_1_x5F_" class="st1" d="M238.1,403.5c17.1-82.7,76.6-140.3,133-128.7s88.2,88.1,71.1,170.8
	s-76.6,140.3-133,128.7S221,486.2,238.1,403.5z"/>
<text><textPath  xlink:href="#SVGID_x5F_1_x5F_" startOffset="69.415%">
<tspan  class="st2 st8" style="font-size:18.7862px;">CONSEJO ESTUDIANTIL</tspan></textPath>
</text>
<path class="st0" d="M517.4,444.5l252.6-164.2c38.7,47.7,59.6,105.2,59.6,164.2c0,17.7-1.9,35.4-5.6,52.9L517.4,444.5z"/>
<path id="SVGID_x5F_2_x5F_" class="st1" d="M705.3,590.5c-55.4,2.7-103.8-67.1-108.1-155.9c-4.3-88.8,37.1-162.9,92.5-165.6
	c55.4-2.7,103.8,67.1,108.1,155.9C802.1,513.7,760.7,587.9,705.3,590.5z"/>
<text><textPath  xlink:href="#SVGID_x5F_2_x5F_" startOffset="6.551%">
<tspan  class="st2 st8" style="font-size:19.0835px;">                                                                               CONSEJO DE PADRES</tspan></textPath>
</text>
<path class="st0" d="M517.4,444.5L707.6,666c-54.5,37.5-121.4,57.8-190.2,57.8c-62.7,0-124.1-16.9-175.9-48.6L517.4,444.5z"/>
<g>
	<g>
		<path class="st2" d="M431.6,697.1c-0.3,1.4-0.5,2.1-0.8,3.6c-1.2-0.3-1.8-0.4-2.9-0.8c1.5-5.5,2.3-8.3,3.9-13.7
			c1.4,0.4,2.1,0.5,3.5,0.9c1.4,6.2,2.2,9.3,4.1,15.5c-1.2-0.2-1.8-0.4-3-0.6c-0.4-1.6-0.7-2.4-1.1-4
			C433.8,697.7,433.1,697.5,431.6,697.1z M434.7,695.4c-0.3-1.3-0.5-2-0.8-3.3c-0.2-0.9-0.4-2.1-0.6-3c0,0,0,0,0,0
			c-0.2,0.8-0.4,1.9-0.6,2.7c-0.3,1.2-0.4,1.8-0.7,2.9C433.1,695,433.7,695.1,434.7,695.4z"/>
		<path class="st2" d="M440.9,699.6c0.8,0.6,1.9,1.3,3.1,1.6c1.3,0.3,2-0.2,1.9-1.2c0-0.9-0.6-1.5-2.1-2.5c-2-1.3-3.3-2.9-3.3-5
			c0.1-2.5,1.8-3.9,4.6-3.4c1.3,0.3,2.3,0.8,3,1.3c-0.2,1-0.4,1.5-0.6,2.5c-0.5-0.4-1.3-0.9-2.5-1.2c-1.2-0.2-1.7,0.3-1.8,1
			c0,0.9,0.7,1.5,2.2,2.5c2.1,1.4,3.2,2.9,3.2,4.9c0.1,2.4-1.5,4.3-4.9,3.6c-1.4-0.3-2.8-1-3.6-1.7
			C440.5,701.2,440.6,700.6,440.9,699.6z"/>
		<path class="st2" d="M453.5,701.8c-0.3,1.4-0.5,2.1-0.9,3.6c-1.2-0.2-1.8-0.3-2.9-0.6c1.5-5.5,2.3-8.2,3.9-13.7
			c1.4,0.3,2.1,0.4,3.5,0.6c1.4,6,2.2,9,4,15c-1.2-0.2-1.8-0.3-3-0.4c-0.4-1.5-0.6-2.3-1-3.9C455.7,702.1,455,702,453.5,701.8z
			 M456.6,699.8c-0.3-1.3-0.5-1.9-0.8-3.2c-0.2-0.9-0.4-2-0.6-2.9c0,0,0,0,0,0c-0.2,0.8-0.4,1.9-0.6,2.7c-0.3,1.2-0.4,1.8-0.7,2.9
			C455,699.6,455.6,699.7,456.6,699.8z"/>
		<path class="st2" d="M473.1,702.8c-0.1-1.7-0.2-3.8-0.2-5.9c0,0,0,0-0.1,0c-0.4,1.8-0.8,3.8-1.3,5.4c-0.6,2.2-0.8,3.3-1.4,5.4
			c-0.9-0.1-1.3-0.2-2.2-0.3c-0.6-2.3-0.8-3.4-1.3-5.7c-0.4-1.7-0.8-3.8-1-5.8c0,0,0,0,0,0c-0.1,1.9-0.2,4.1-0.3,5.9
			c-0.1,2.2-0.2,3.2-0.2,5.4c-1-0.2-1.6-0.2-2.6-0.4c0.4-5.7,0.6-8.5,1.1-14.2c1.4,0.2,2.1,0.4,3.5,0.6c0.4,2,0.6,3,1.1,4.9
			c0.4,1.7,0.7,3.5,1,5.3c0,0,0,0,0.1,0c0.3-1.6,0.7-3.5,1.1-5c0.5-1.8,0.8-2.8,1.3-4.6c1.4,0.2,2.1,0.2,3.5,0.4
			c0.3,5.7,0.6,8.6,1.1,14.4c-1.1-0.1-1.7-0.2-2.8-0.3C473.2,706.1,473.2,705,473.1,702.8z"/>
		<path class="st2" d="M478.3,694.8c0.7-0.1,2.1,0,3.4,0.1c1.6,0.2,2.6,0.5,3.5,1.1c0.8,0.6,1.4,1.6,1.5,2.9c0,1.3-0.6,2.4-1.9,2.9
			c0,0,0,0,0,0c1.4,0.6,2.4,1.8,2.5,3.7c0,1.3-0.4,2.3-1.2,2.9c-0.9,0.8-2.4,1.1-4.9,0.9c-1.4-0.1-2.4-0.4-3.1-0.5
			C478.1,703.2,478.2,700.4,478.3,694.8z M480.9,700.5c0.4,0,0.5,0.1,0.9,0.1c1.4,0.1,2.2-0.5,2.2-1.6c0-1.1-0.7-1.7-1.9-1.8
			c-0.6-0.1-0.9,0-1.1,0C480.9,698.5,480.9,699.2,480.9,700.5z M480.9,706.9c0.3,0.1,0.6,0.1,1.1,0.1c1.3,0.1,2.4-0.3,2.3-1.8
			c0-1.4-1.1-2.1-2.5-2.2c-0.4,0-0.6-0.1-0.9-0.1C480.9,704.5,480.9,705.3,480.9,706.9z"/>
		<path class="st2" d="M489.2,695.6c1.1,0.1,1.6,0.1,2.7,0.2c0,4.6,0,6.9,0.1,11.5c2,0.1,2.9,0.2,4.9,0.3c0,1.1,0.1,1.6,0.1,2.7
			c-3.1-0.1-4.7-0.2-7.8-0.5C489.1,704.1,489.1,701.3,489.2,695.6z"/>
		<path class="st2" d="M505.6,704.7c-1.8,0-2.7-0.1-4.5-0.1c0,1.4,0,2,0,3.4c2,0.1,3,0.1,5,0.1c0,1.1,0.1,1.6,0.1,2.6
			c-3.2,0-4.8-0.1-7.9-0.3c0-5.7,0-8.5,0-14.2c2.9,0.2,4.3,0.2,7.2,0.3c0,1.1,0,1.6,0.1,2.6c-1.8,0-2.8-0.1-4.6-0.1c0,1.2,0,1.8,0,3
			c1.8,0.1,2.6,0.1,4.4,0.1C505.6,703.1,505.6,703.6,505.6,704.7z"/>
		<path class="st2" d="M511,707.2c-0.3,1.5-0.5,2.2-0.8,3.6c-1.2,0-1.7,0-2.9-0.1c1.5-5.6,2.2-8.5,3.6-14.1c1.4,0,2.1,0,3.5,0
			c1.6,5.7,2.4,8.5,4.3,14.2c-1.2,0-1.8,0-3,0c-0.4-1.5-0.7-2.2-1.1-3.7C513.1,707.2,512.4,707.2,511,707.2z M514,704.8
			c-0.3-1.2-0.5-1.8-0.8-3c-0.2-0.8-0.5-1.9-0.7-2.8c0,0,0,0,0,0c-0.2,0.8-0.3,1.9-0.5,2.7c-0.3,1.2-0.4,1.8-0.7,3
			C512.4,704.8,513,704.8,514,704.8z"/>
		<path class="st2" d="M523.6,696.7c1-0.2,2.2-0.3,3.6-0.4c2.2-0.1,3.7,0.3,4.8,1.3c1.3,1,2.2,2.7,2.3,5.2c0.2,2.7-0.6,4.7-1.7,5.9
			c-1.2,1.3-3.2,2-5.6,2.1c-1.5,0-2.5-0.1-3.2-0.2C523.7,705.1,523.6,702.3,523.6,696.7z M526.5,708.3c0.2,0.1,0.6,0,1,0
			c2.5-0.1,4.1-1.8,3.9-5.2c-0.1-3-1.6-4.4-3.9-4.4c-0.6,0-1,0.1-1.2,0.2C526.4,702.7,526.4,704.6,526.5,708.3z"/>
		<path class="st2" d="M543.4,703.8c-1.8,0.2-2.7,0.2-4.4,0.3c0,1.4,0.1,2,0.1,3.4c2-0.1,3-0.2,5-0.4c0.1,1.1,0.1,1.6,0.1,2.7
			c-3.2,0.3-4.7,0.4-7.9,0.5c-0.1-5.7-0.2-8.6-0.3-14.3c2.9-0.1,4.3-0.2,7.2-0.5c0.1,1.1,0.1,1.6,0.2,2.7c-1.8,0.2-2.8,0.2-4.6,0.3
			c0,1.2,0.1,1.8,0.1,3c1.8-0.1,2.6-0.2,4.4-0.3C543.4,702.2,543.4,702.7,543.4,703.8z"/>
		<path class="st2" d="M552.9,694.8c0.8-0.2,1.9-0.5,3.5-0.7c1.6-0.2,2.8,0,3.6,0.7c0.8,0.6,1.4,1.7,1.5,3.1
			c0.1,1.4-0.2,2.7-0.9,3.6c-0.9,1.2-2.2,1.8-3.8,2c-0.4,0-0.7,0.1-0.9,0c0.1,2.1,0.1,3.1,0.2,5.1c-1.1,0.1-1.7,0.2-2.8,0.3
			C553.2,703.3,553.1,700.5,552.9,694.8z M555.8,701.1c0.2,0,0.5,0,0.9,0c1.4-0.2,2.3-1.1,2.2-2.6c-0.1-1.3-0.9-2-2.2-1.9
			c-0.5,0.1-0.9,0.2-1.1,0.2C555.7,698.5,555.8,699.4,555.8,701.1z"/>
		<path class="st2" d="M565.6,703.9c-0.3,1.5-0.4,2.3-0.7,3.8c-1.2,0.1-1.7,0.2-2.9,0.3c1.4-5.9,2-8.9,3.1-14.9
			c1.4-0.2,2.1-0.3,3.4-0.5c1.9,5.5,2.8,8.3,4.8,13.8c-1.2,0.2-1.8,0.3-3,0.5c-0.5-1.4-0.7-2.1-1.2-3.6
			C567.7,703.6,567,703.7,565.6,703.9z M568.5,701c-0.4-1.2-0.6-1.8-0.9-3c-0.3-0.8-0.5-1.9-0.8-2.7c0,0,0,0,0,0
			c-0.1,0.9-0.2,2-0.4,2.9c-0.2,1.3-0.3,1.9-0.5,3.2C566.9,701.3,567.5,701.2,568.5,701z"/>
		<path class="st2" d="M574.1,691.9c1-0.3,2.2-0.6,3.5-0.9c2.2-0.4,3.7-0.2,4.9,0.7c1.3,0.9,2.3,2.5,2.5,5.1
			c0.2,2.8-0.4,4.9-1.5,6.3c-1.2,1.5-3.2,2.5-5.6,2.9c-1.5,0.2-2.5,0.3-3.2,0.3C574.6,700.5,574.4,697.6,574.1,691.9z M577.4,703.4
			c0.2,0,0.6,0,1-0.1c2.5-0.4,4-2.4,3.8-5.8c-0.2-3-1.8-4.3-4.1-3.9c-0.6,0.1-1,0.2-1.2,0.3C577.2,697.6,577.3,699.5,577.4,703.4z"
			/>
		<path class="st2" d="M586.6,689.6c0.8-0.3,2.1-0.7,3.5-1c1.7-0.4,3-0.3,3.9,0.3c0.8,0.5,1.2,1.5,1.4,2.8c0.2,1.9-0.8,3.4-1.8,4.1
			c0,0,0,0,0,0.1c0.9,0.2,1.4,1.1,1.8,2.4c0.5,1.6,1,3.4,1.3,3.9c-1.1,0.3-1.7,0.4-2.9,0.6c-0.2-0.4-0.6-1.5-1.1-3.2
			c-0.5-1.7-1-2.1-2.1-1.9c-0.3,0.1-0.5,0.1-0.8,0.2c0.1,2.3,0.2,3.5,0.3,5.8c-1.1,0.2-1.7,0.3-2.8,0.5
			C587.2,698.3,587,695.4,586.6,689.6z M589.7,695.4c0.4-0.1,0.6-0.1,1.1-0.2c1.4-0.3,2.1-1.3,2-2.6c-0.1-1.3-0.9-1.9-2.1-1.6
			c-0.6,0.1-1,0.3-1.2,0.4C589.6,693,589.6,693.8,589.7,695.4z"/>
		<path class="st2" d="M605.1,693.9c-1.8,0.5-2.7,0.7-4.5,1.1c0.1,1.4,0.1,2.1,0.2,3.5c2-0.5,3-0.7,5-1.2c0.1,1.1,0.1,1.6,0.2,2.7
			c-3.2,0.8-4.8,1.2-7.9,1.9c-0.2-5.9-0.4-8.9-0.8-14.8c2.9-0.6,4.3-1,7.2-1.8c0.1,1.1,0.2,1.6,0.3,2.7c-1.8,0.5-2.8,0.7-4.6,1.2
			c0.1,1.2,0.1,1.8,0.2,3.1c1.8-0.4,2.6-0.6,4.4-1.1C604.9,692.3,605,692.8,605.1,693.9z"/>
		<path class="st2" d="M607.8,696.1c0.8,0.3,1.9,0.5,3.1,0.2c1.3-0.3,1.9-1.2,1.8-2.1c-0.1-0.9-0.7-1.3-2.2-1.6
			c-2.1-0.3-3.4-1.4-3.6-3.6c-0.2-2.5,1.3-4.9,4.1-5.7c1.3-0.4,2.3-0.3,3.1-0.1c-0.1,1.2-0.2,1.7-0.3,2.9c-0.5-0.1-1.4-0.3-2.5,0
			c-1.2,0.3-1.7,1.1-1.6,1.9c0.1,0.9,0.8,1.2,2.4,1.5c2.2,0.4,3.3,1.4,3.5,3.6c0.2,2.5-1.3,5.1-4.7,6c-1.4,0.4-2.8,0.3-3.6,0
			C607.5,697.8,607.6,697.2,607.8,696.1z"/>
	</g>
</g>
<ellipse class="st3" cx="521.2" cy="440.6" rx="268.4" ry="245.4"/>
<path class="st4" d="M555.3,223.9"/>
<g>
	<path class="st4" d="M570.9,229.6"/>
</g>
<g>
	<g>
		<path class="st5" d="M721,275.6l-9.3,7.3c0,0,4.9-1.2,11.4-0.4c6.6,0.9,14.9,3.9,21.5,12.2c-6.2-8.7-6.9-17.5-6.1-24.1
			c0.8-6.6,3.1-11.1,3.1-11.1l-9.3,7.3l-2.1-2.7c-1.7-2.2-3.5-4.3-5.3-6.5c-0.9-1.1-1.9-2.2-2.9-3.3l-2.9-3.1l-2.3-2.5l8.6-8.2
			c0,0-4.8,1.6-11.5,1.4c-6.7-0.2-15.3-2.1-23-9.5c7.4,7.7,9.2,16.4,9.1,23c-0.1,6.6-2,11.2-2,11.2l8.6-8.2l2.3,2.4l2.7,2.9
			c0.8,0.9,1.7,1.9,2.5,2.9c1.7,2,3.4,4.1,5,6.3L721,275.6z"/>
	</g>
</g>
<g>
	<g>
		<path class="st5" d="M714.2,618.6l-8.3-8.5c0,0,1.8,4.7,1.7,11.3c-0.1,6.6-2.2,15.2-9.7,22.8c8-7.1,16.6-8.8,23.3-8.8
			c6.7,0,11.4,1.8,11.4,1.8l-8.3-8.5l2.4-2.4c2-1.9,3.9-3.9,5.9-6c1-1,2-2.1,3-3.2l2.8-3.2l2.2-2.6l9.1,7.6c0,0-2.1-4.6-2.7-11.3
			c-0.6-6.7,0.4-15.4,6.8-23.9c-6.9,8.2-15.2,11-21.8,11.6c-6.6,0.7-11.4-0.8-11.4-0.8l9.1,7.6l-2.1,2.5l-2.6,3
			c-0.8,0.9-1.7,1.9-2.6,2.8c-1.8,1.9-3.7,3.8-5.7,5.7L714.2,618.6z"/>
	</g>
</g>
<g>
	<g>
		<path class="st5" d="M768.3,545.4l-10.2-6c0,0,2.9,4.1,4.5,10.5c1.6,6.4,1.8,15.2-3.5,24.5c5.8-8.9,13.7-12.8,20.2-14.5
			c6.5-1.7,11.5-1.2,11.5-1.2l-10.2-6l1.7-2.9c1.4-2.4,2.8-4.8,4.2-7.3c0.7-1.3,1.4-2.6,2-3.9l1.8-3.8l1.4-3.1l10.8,5
			c0,0-3.2-3.9-5.5-10.2c-2.3-6.3-3.6-15,0.4-24.9c-4.5,9.7-11.9,14.5-18.1,16.9c-6.2,2.4-11.2,2.2-11.2,2.2l10.8,5l-1.4,3l-1.7,3.6
			c-0.6,1.1-1.2,2.3-1.8,3.4c-1.3,2.3-2.6,4.6-4,7L768.3,545.4z"/>
	</g>
</g>
<g>
	<g>
		<path class="st5" d="M265.3,533.6l10.5-5.5c0,0-5,0.3-11.3-1.7c-6.3-2.1-13.9-6.6-18.9-16c4.5,9.7,3.6,18.4,1.6,24.8
			c-2,6.4-5.1,10.4-5.1,10.4l10.5-5.5l1.6,3c1.3,2.5,2.6,4.9,4,7.4c0.7,1.3,1.4,2.5,2.2,3.8l2.3,3.6l1.8,2.9l-9.9,6.5
			c0,0,5-0.7,11.6,0.7c6.5,1.4,14.6,4.9,20.9,13.5c-5.8-9-6-17.8-4.7-24.3c1.3-6.5,4.1-10.7,4.1-10.7l-9.9,6.5l-1.8-2.8l-2.1-3.4
			c-0.7-1.1-1.3-2.2-1.9-3.3c-1.3-2.3-2.5-4.7-3.8-7.1L265.3,533.6z"/>
	</g>
</g>
<g>
	<g>
		<path class="st5" d="M316.6,609.5l8.5-8.3c0,0-4.7,1.8-11.3,1.6c-6.6-0.2-15.2-2.3-22.7-9.9c7.1,8,8.7,16.6,8.7,23.3
			c-0.1,6.7-1.9,11.4-1.9,11.4l8.5-8.3l2.4,2.4c1.9,2,3.9,4,5.9,5.9c1,1,2.1,2,3.2,3l3.2,2.8l2.6,2.2l-7.7,9c0,0,4.6-2.1,11.3-2.6
			c6.7-0.5,15.4,0.5,23.9,7c-8.1-6.9-10.9-15.3-11.5-21.9c-0.6-6.6,0.8-11.4,0.8-11.4l-7.7,9l-2.5-2.1l-3-2.6
			c-0.9-0.8-1.9-1.7-2.8-2.6c-1.9-1.8-3.8-3.8-5.7-5.7L316.6,609.5z"/>
	</g>
</g>
<g>
	<g>
		<path class="st5" d="M336.5,260.1l7.8,8.9c0,0-1.5-4.8-1.1-11.4c0.5-6.6,3-15.1,10.9-22.2c-8.3,6.7-17,7.9-23.7,7.6
			c-6.7-0.4-11.3-2.4-11.3-2.4l7.9,8.9l-2.5,2.3c-2.1,1.8-4.1,3.7-6.2,5.6c-1.1,1-2.1,2-3.1,3.1l-2.9,3.1l-2.3,2.5l-8.7-8.1
			c0,0,1.9,4.7,2.1,11.4c0.2,6.7-1.2,15.4-8.1,23.5c7.3-7.8,15.8-10.1,22.4-10.4c6.6-0.3,11.3,1.4,11.3,1.4l-8.7-8.1l2.3-2.4
			l2.8-2.9c0.9-0.9,1.8-1.8,2.7-2.7c1.9-1.8,3.9-3.6,5.9-5.4L336.5,260.1z"/>
	</g>
</g>
<polygon class="st6" points="472.1,119.8 480.8,136 429.5,157.3 421.4,141.6 "/>
<polygon class="st6" points="550.1,56.7 551.6,75.1 496,73.7 494.9,56.1 "/>
<polygon class="st6" points="579.4,120.7 572.5,137 621.3,157 630.1,141.3 "/>
<line class="st7" x1="525.7" y1="190" x2="523.8" y2="75.5"/>
<path class="st7" d="M479.4,130.2c0,0,44-11.7,92.4,1.1"/>
<path id="SVGID_x5F_3_x5F_" class="st1" d="M517,172.5c3.7-23.5,31.2-38.8,61.5-34c30.2,4.8,51.7,27.8,47.9,51.3s-31.2,38.8-61.5,34
	S513.3,196.1,517,172.5z"/>
<text><textPath  xlink:href="#SVGID_x5F_3_x5F_" startOffset="107.4543%">
<tspan  class="st8" style="font-size:19.0835px;">S.E.M</tspan></textPath>
</text>
<path id="SVGID_x5F_4_x5F_" class="st1" d="M533.9,182.8c0,23.8-24.8,43.2-55.4,43.2s-55.4-19.3-55.4-43.2s24.8-43.2,55.4-43.2
	S533.9,158.9,533.9,182.8z"/>
<text><textPath  xlink:href="#SVGID_x5F_4_x5F_" startOffset="105.293%">
<tspan  class="st8 st9">                                                                      N. 937</tspan></textPath>
</text>
<text transform="matrix(0.92 0 0 1 500.1685 72.3545)" class="st8 st9">M.E.N</text>
<path class="st0" d="M341.1,217.8l20.4,29.7c0,0,66.9-47.2,156.1-51.3c4-0.2,9.9,0.8,13.9,0.8c47,0.1,98.5,9.8,149,49.8l19.8-28.5
	c0,0-116.4-93-288.7-35.1c-7.8,2.6-13.9,5.4-21.9,8.7C373.4,198.6,358.3,208.4,341.1,217.8z"/>
<path id="SVGID_x5F_5_x5F_" class="st1" d="M295.9,378.1c-3.8-99.2,93.2-183.5,216.7-188.3c123.5-4.8,226.8,71.8,230.6,170.9
	S650.1,544.2,526.6,549S299.8,477.3,295.9,378.1z"/>
<text><textPath  xlink:href="#SVGID_x5F_5_x5F_" startOffset="101.298%">
<tspan  class="st2 st8 st9">I.E MANUEL J. BETANCUR</tspan></textPath>
</text>
<path class="st10" d="M522.7,441.7l25.9-184.2c27.6,3.4,54,12.2,77.7,25.9c25.1,14.5,46.4,34,62.4,57.1L522.7,441.7z"/>
<path class="st10" d="M524.6,443.4l164-102.9c22.2,30.4,34,66.2,34,102.9c0,24.3-5.2,48.3-15.3,70.7L524.6,443.4z"/>
<path id="SVGID_x5F_6_x5F_" class="st1" d="M376.9,432.6c0.4-79.9,72.2-144.3,160.3-143.8c88.1,0.5,159.2,65.6,158.8,145.5
	s-72.2,144.3-160.3,143.8S376.5,512.5,376.9,432.6z"/>
<text><textPath  xlink:href="#SVGID_x5F_6_x5F_" startOffset="0%">
<tspan  class="st8" style="font-size:12.8266px;">     </tspan><tspan  class="st2 st8" style="font-size:11.2624px;">Comité Escolar - Convivencia          Mediador Escolar</tspan></textPath>
</text>
<path class="st10" d="M522.7,443.9l168.4,96.6c-12.5,18.8-28.6,35.3-47.4,48.8c-17.9,12.8-38.1,22.7-59.6,29.2L522.7,443.9z"/>
<path class="st10" d="M522.7,443.9l68,172.5c-21.8,7.4-44.8,11.1-68,11.1c-18.3,0-36.5-2.3-54-7L522.7,443.9z"/>
<path class="st10" d="M522.7,443.9l-40.7,179.7c-24.9-4.8-48.5-14.1-69.6-27.2c-22.3-13.8-41.3-31.7-55.9-52.6L522.7,443.9z"/>
<g>
	<g id="Coordinadores______________Jefes_de_Área____________Docentes_2_">
		<path class="st11" d="M393.1,574.9c-0.4,0-1.2-0.2-2.3-0.8c-2.9-1.6-3.9-4.2-3.2-6.5c0.8-2.8,3.3-3.2,5.8-1.8
			c1,0.5,1.7,1.1,1.9,1.4c-0.3,0.5-0.5,0.8-0.8,1.3c-0.3-0.4-0.8-0.8-1.5-1.1c-1.5-0.8-2.9-0.6-3.4,1.3c-0.5,1.6,0.2,3.2,1.9,4.1
			c0.6,0.3,1.2,0.5,1.7,0.6C393.1,574,393.1,574.3,393.1,574.9z"/>
		<path class="st11" d="M400.9,575.7c-0.6,2.2-2.4,2.4-4.1,1.6c-1.8-0.9-2.9-2.8-2.3-4.7c0.5-1.9,2.2-2.4,4.1-1.5
			C400.4,572,401.3,573.9,400.9,575.7z M396.4,573.5c-0.3,1,0,2,0.8,2.4c0.7,0.4,1.4-0.1,1.7-1.2c0.2-0.9,0.1-2-0.7-2.4
			C397.2,571.9,396.6,572.6,396.4,573.5z"/>
		<path class="st11" d="M408.2,579.2c-0.5,2.2-2.4,2.5-4.1,1.7c-1.8-0.9-2.9-2.7-2.4-4.6c0.5-1.9,2.1-2.5,4.1-1.6
			C407.7,575.5,408.7,577.4,408.2,579.2z M403.7,577.1c-0.3,1,0,2,0.8,2.4c0.8,0.4,1.4-0.1,1.7-1.2c0.2-0.9,0.1-2-0.8-2.4
			C404.5,575.5,403.9,576.3,403.7,577.1z"/>
		<path class="st11" d="M409.7,578.8c0.2-0.9,0.3-1.5,0.4-2c0.7,0.3,1,0.4,1.7,0.7c-0.1,0.5-0.1,0.7-0.2,1.1c0,0,0,0,0.1,0
			c0.5-0.7,1.4-0.8,2-0.5c0.2,0.1,0.3,0.1,0.4,0.2c-0.2,0.7-0.3,1.1-0.4,1.8c-0.1-0.1-0.3-0.2-0.5-0.3c-0.7-0.3-1.3-0.2-1.6,0.4
			c-0.1,0.1-0.1,0.3-0.1,0.4c-0.3,1.2-0.4,1.8-0.7,3c-0.8-0.3-1.2-0.5-2-0.9C409.1,581.2,409.3,580.4,409.7,578.8z"/>
		<path class="st11" d="M421.6,578.6c-0.6,2.8-0.9,4.2-1.5,7c-0.1,0.7-0.3,1.4-0.3,1.8c-0.7-0.3-1.1-0.4-1.8-0.7
			c0-0.4,0.1-0.6,0.1-0.9c0,0,0,0,0,0c-0.6,0.5-1.4,0.5-2.2,0.2c-1.5-0.6-2.4-2.4-2-4.2c0.5-2,2.1-2.6,3.6-2
			c0.8,0.3,1.3,0.8,1.5,1.4c0,0,0,0,0,0c0.3-1.3,0.5-2,0.8-3.3C420.4,578.2,420.8,578.3,421.6,578.6z M418.4,583.1
			c0-0.1,0-0.2,0-0.3c0-0.6-0.3-1.1-0.9-1.4c-0.9-0.4-1.5,0.2-1.7,1.2c-0.2,1,0.1,1.9,1,2.2c0.6,0.2,1.1,0,1.3-0.4
			c0.1-0.1,0.1-0.3,0.1-0.4C418.3,583.6,418.4,583.4,418.4,583.1z"/>
		<path class="st11" d="M425,581.1c-0.1,0.5-0.6,0.8-1.3,0.5c-0.6-0.2-0.9-0.8-0.8-1.3c0.1-0.5,0.6-0.8,1.2-0.6
			C424.8,580,425.1,580.5,425,581.1z M421.2,588c0.5-2.4,0.8-3.6,1.4-6c0.8,0.3,1.2,0.5,2,0.8c-0.5,2.4-0.8,3.6-1.3,6.1
			C422.4,588.5,422,588.3,421.2,588z"/>
		<path class="st11" d="M425.7,585.3c0.2-0.8,0.3-1.4,0.4-1.9c0.7,0.3,1,0.4,1.7,0.6c0,0.3-0.1,0.5-0.1,0.9c0,0,0,0,0,0
			c0.3-0.3,1.1-0.6,2.2-0.3c1.3,0.5,2.1,1.6,1.7,3.4c-0.3,1.4-0.4,2.2-0.7,3.6c-0.8-0.3-1.2-0.4-2-0.7c0.3-1.3,0.4-2,0.7-3.4
			c0.2-0.8,0-1.4-0.7-1.7c-0.5-0.2-0.9,0-1.2,0.3c-0.1,0.1-0.1,0.3-0.2,0.4c-0.3,1.4-0.4,2.1-0.7,3.5c-0.8-0.3-1.2-0.4-2-0.7
			C425.2,587.7,425.3,586.9,425.7,585.3z"/>
		<path class="st11" d="M436.2,593.3c0-0.3,0-0.4,0-0.7c0,0,0,0,0,0c-0.5,0.4-1.2,0.4-2,0.1c-1.3-0.4-1.9-1.6-1.7-2.6
			c0.3-1.6,2-1.8,4.2-1.1c0,0,0-0.1,0-0.1c0.1-0.3,0-0.8-1-1.2c-0.7-0.2-1.4-0.2-1.9-0.1c0-0.5-0.1-0.8-0.1-1.3
			c0.5-0.1,1.4-0.1,2.6,0.3c2.1,0.7,2.6,2.1,2.3,3.5c-0.2,0.8-0.2,1.3-0.4,2.1c-0.1,0.6-0.2,1.2-0.2,1.5
			C437.3,593.7,436.9,593.6,436.2,593.3z M436.5,590.4c-1.1-0.4-1.9-0.4-2.1,0.3c-0.1,0.5,0.2,0.8,0.6,1c0.5,0.2,1,0,1.2-0.4
			c0-0.1,0.1-0.2,0.1-0.3C436.4,590.8,436.4,590.7,436.5,590.4z"/>
		<path class="st11" d="M447.4,587.4c-0.5,2.8-0.7,4.3-1.2,7.1c-0.1,0.7-0.2,1.4-0.3,1.8c-0.7-0.2-1.1-0.3-1.8-0.5
			c0-0.4,0-0.6,0.1-0.9c0,0,0,0,0,0c-0.5,0.6-1.4,0.7-2.2,0.4c-1.5-0.5-2.5-2.1-2.2-4c0.4-2.1,2-2.8,3.5-2.4
			c0.8,0.2,1.4,0.7,1.6,1.2c0,0,0,0,0,0c0.2-1.3,0.4-2,0.6-3.3C446.2,587,446.6,587.1,447.4,587.4z M444.4,592.2c0-0.1,0-0.2,0-0.3
			c0-0.5-0.4-1.1-1-1.3c-0.9-0.3-1.5,0.4-1.7,1.3c-0.2,1,0.2,1.9,1.1,2.1c0.6,0.2,1.1-0.1,1.3-0.6c0.1-0.1,0.1-0.3,0.1-0.4
			C444.3,592.6,444.4,592.5,444.4,592.2z"/>
		<path class="st11" d="M454.4,595.3c-0.4,2.3-2.2,2.9-4,2.4c-1.9-0.5-3.2-2.1-2.8-4.1c0.4-2,1.9-2.9,4-2.3
			C453.6,591.8,454.7,593.4,454.4,595.3z M449.7,594.1c-0.2,1.1,0.2,2,1,2.2c0.8,0.2,1.4-0.4,1.6-1.5c0.1-0.9-0.1-1.9-1-2.2
			C450.3,592.4,449.8,593.2,449.7,594.1z"/>
		<path class="st11" d="M455.8,594.6c0.1-0.9,0.2-1.5,0.3-2c0.7,0.2,1,0.3,1.7,0.4c0,0.5-0.1,0.7-0.1,1.2c0,0,0,0,0.1,0
			c0.5-0.8,1.3-1,1.9-0.9c0.2,0,0.3,0.1,0.4,0.1c-0.1,0.7-0.2,1.1-0.3,1.8c-0.1-0.1-0.3-0.1-0.5-0.2c-0.7-0.2-1.3,0.1-1.5,0.6
			c0,0.1-0.1,0.3-0.1,0.4c-0.2,1.3-0.3,1.9-0.5,3.1c-0.8-0.2-1.2-0.3-2.1-0.5C455.4,597.1,455.6,596.3,455.8,594.6z"/>
		<path class="st11" d="M462.1,597.8c-0.1,0.8,0.7,1.4,1.7,1.6c0.7,0.1,1.3,0.2,1.9,0.1c0,0.5,0.1,0.8,0.1,1.4
			c-0.7,0.1-1.6,0.1-2.5-0.1c-2.3-0.5-3.3-2-3.1-3.9c0.2-1.6,1.5-3.1,3.8-2.6c2.1,0.5,2.7,2.2,2.5,3.7c0,0.3-0.1,0.6-0.2,0.7
			C464.7,598.4,463.8,598.2,462.1,597.8z M464.7,597c0.1-0.5,0-1.3-1-1.5c-0.9-0.2-1.3,0.5-1.4,1C463.3,596.7,463.7,596.8,464.7,597
			z"/>
		<path class="st11" d="M467.5,599.8c0.3,0.3,1.1,0.7,1.7,0.8c0.6,0.1,0.9,0,0.9-0.4c0-0.3-0.1-0.5-0.9-0.9
			c-1.3-0.7-1.7-1.5-1.6-2.2c0.2-1.1,1.3-1.8,2.9-1.5c0.8,0.1,1.4,0.4,1.8,0.7c-0.2,0.5-0.3,0.8-0.5,1.3c-0.3-0.2-0.8-0.5-1.4-0.6
			c-0.5-0.1-0.8,0-0.8,0.4c0,0.3,0.2,0.5,1,0.9c1.2,0.6,1.7,1.3,1.6,2.3c-0.1,1.2-1.2,1.8-3.1,1.5c-0.9-0.2-1.6-0.5-2.1-0.9
			C467.2,600.6,467.3,600.3,467.5,599.8z"/>
		<path class="st11" d="M497.8,597.1c0.8,0.1,1.2,0.1,2,0.2c-0.2,2.2-0.2,3.3-0.4,5.5c-0.2,2.5-1.5,3.2-3.5,3.1
			c-0.5,0-1.1-0.2-1.5-0.4c0.1-0.6,0.2-0.9,0.4-1.6c0.3,0.1,0.6,0.2,1.1,0.3c0.9,0.1,1.5-0.2,1.6-1.6
			C497.6,600.4,497.6,599.3,497.8,597.1z"/>
		<path class="st11" d="M502.7,603.7c0,0.8,0.8,1.3,1.8,1.3c0.7,0,1.3,0,1.9-0.2c0.1,0.5,0.1,0.8,0.2,1.3c-0.7,0.2-1.6,0.3-2.5,0.2
			c-2.3-0.1-3.5-1.5-3.3-3.5c0.1-1.6,1.3-3.3,3.6-3.1c2.1,0.1,2.9,1.8,2.8,3.3c0,0.3-0.1,0.6-0.1,0.8
			C505.3,603.9,504.4,603.8,502.7,603.7z M505.2,602.5c0-0.5-0.1-1.3-1.1-1.4c-0.9-0.1-1.3,0.7-1.4,1.2
			C503.7,602.4,504.2,602.4,505.2,602.5z"/>
		<path class="st11" d="M508.4,606.6c0.1-2,0.2-2.9,0.3-4.9c-0.3,0-0.5,0-0.9,0c0-0.6,0.1-0.9,0.1-1.5c0.3,0,0.5,0,0.9,0
			c0-0.1,0-0.1,0-0.2c0-0.8,0.3-1.6,1-2.1c0.5-0.4,1.3-0.6,1.8-0.6c0.5,0,0.8,0.1,1.1,0.2c-0.1,0.6-0.1,0.9-0.1,1.5
			c-0.2-0.1-0.4-0.1-0.7-0.1c-0.7,0-1,0.5-1,1.1c0,0.1,0,0.2,0,0.3c0.5,0,0.8,0,1.3,0c0,0.6,0,0.9-0.1,1.5c-0.5,0-0.8,0-1.3,0
			c-0.1,2-0.2,2.9-0.3,4.9C509.7,606.6,509.2,606.6,508.4,606.6z"/>
		<path class="st11" d="M514.4,604.3c0,0.8,0.9,1.2,1.8,1.3c0.7,0,1.3-0.1,1.9-0.2c0.1,0.5,0.1,0.8,0.2,1.3
			c-0.7,0.3-1.5,0.4-2.5,0.4c-2.3,0-3.5-1.3-3.4-3.3c0.1-1.6,1.2-3.3,3.5-3.3c2.1,0,2.9,1.6,2.9,3.2c0,0.3-0.1,0.6-0.1,0.8
			C517,604.3,516.1,604.3,514.4,604.3z M516.9,603c0-0.5-0.2-1.3-1.1-1.3c-0.9,0-1.3,0.7-1.3,1.3C515.4,602.9,515.9,602.9,516.9,603
			z"/>
		<path class="st11" d="M520,605.2c0.4,0.2,1.2,0.5,1.8,0.5c0.6,0,0.9-0.2,0.9-0.5c0-0.3-0.2-0.5-1-0.7c-1.4-0.4-1.9-1.2-1.8-1.9
			c0.1-1.2,1.1-2.1,2.8-2.1c0.8,0,1.5,0.2,1.9,0.4c-0.2,0.5-0.2,0.8-0.4,1.4c-0.3-0.2-0.9-0.4-1.4-0.4c-0.5,0-0.8,0.2-0.8,0.5
			c0,0.3,0.2,0.5,1.1,0.7c1.3,0.4,1.8,1,1.8,2c0,1.2-1.1,2.1-3,2.1c-0.9,0-1.7-0.2-2.2-0.5C519.8,606,519.8,605.7,520,605.2z"/>
		<path class="st11" d="M535.3,597.3c0,3,0,4.4,0,7.4c0,0.7,0,1.5,0,1.9c-0.7,0-1.1,0.1-1.9,0.1c0-0.4-0.1-0.6-0.1-0.9c0,0,0,0,0,0
			c-0.4,0.7-1.3,1.1-2.1,1.2c-1.6,0.1-2.8-1.2-2.8-3.2c0-2.1,1.5-3.4,3-3.5c0.8,0,1.4,0.2,1.7,0.7c0,0,0,0,0,0c0-1.4,0-2.1,0-3.5
			C534.1,597.4,534.5,597.3,535.3,597.3z M533.2,603c0-0.1,0-0.2,0-0.4c-0.1-0.5-0.6-1-1.2-0.9c-0.9,0-1.4,0.9-1.5,1.9
			c0,1.1,0.5,1.7,1.4,1.7c0.6,0,1.1-0.4,1.2-1c0-0.1,0.1-0.3,0.1-0.5C533.2,603.5,533.2,603.3,533.2,603z"/>
		<path class="st11" d="M538.5,603.9c0.1,0.8,0.9,1.2,1.9,1.1c0.7,0,1.3-0.2,1.9-0.4c0.1,0.5,0.2,0.8,0.3,1.3
			c-0.7,0.3-1.5,0.5-2.4,0.6c-2.3,0.1-3.6-1.1-3.6-3.1c0-1.6,1.1-3.5,3.4-3.6c2.1-0.1,3,1.4,3,3c0,0.3,0,0.6-0.1,0.8
			C541.1,603.7,540.2,603.7,538.5,603.9z M541,602.3c0-0.5-0.2-1.3-1.2-1.2c-0.9,0.1-1.2,0.8-1.3,1.4
			C539.5,602.4,540,602.4,541,602.3z"/>
		<path class="st11" d="M549.2,603.3c-0.2,0.9-0.4,1.4-0.6,2.3c-0.9,0.1-1.3,0.1-2.2,0.2c1.1-3.6,1.6-5.5,2.7-9.1
			c1.1-0.1,1.6-0.2,2.7-0.3c1.2,3.4,1.8,5.1,3.1,8.5c-0.9,0.1-1.4,0.2-2.3,0.3c-0.3-0.9-0.5-1.3-0.8-2.2
			C550.7,603.2,550.2,603.2,549.2,603.3z M551.5,601.6c-0.2-0.7-0.4-1.1-0.6-1.8c-0.2-0.5-0.4-1.1-0.5-1.7c0,0,0,0,0,0
			c-0.1,0.5-0.2,1.2-0.4,1.8c-0.2,0.8-0.3,1.2-0.5,1.9C550.2,601.7,550.7,601.7,551.5,601.6z M552.6,594.2c-0.6,0.7-0.9,1.1-1.6,1.8
			c-0.7,0.1-1,0.1-1.6,0.2c0.4-0.7,0.6-1,1.1-1.7C551.4,594.4,551.8,594.3,552.6,594.2z"/>
		<path class="st11" d="M555.8,600.5c0-0.9-0.1-1.6-0.1-2.1c0.7-0.1,1.1-0.1,1.8-0.2c0,0.5,0.1,0.7,0.1,1.2c0,0,0,0,0.1,0
			c0.3-1,1.1-1.5,1.7-1.6c0.2,0,0.3,0,0.4,0c0,0.8,0.1,1.1,0.1,1.9c-0.2,0-0.3,0-0.6,0c-0.8,0.1-1.3,0.6-1.4,1.2c0,0.1,0,0.3,0,0.5
			c0,1.3,0.1,2,0.1,3.3c-0.8,0.1-1.3,0.2-2.1,0.3C555.8,603.1,555.8,602.3,555.8,600.5z"/>
		<path class="st11" d="M562.5,601.4c0.1,0.8,1,1.1,1.9,0.9c0.7-0.1,1.3-0.3,1.8-0.6c0.1,0.5,0.2,0.8,0.3,1.3
			c-0.7,0.4-1.5,0.6-2.4,0.8c-2.3,0.3-3.6-0.7-3.7-2.8c-0.1-1.6,0.9-3.6,3.2-3.9c2.1-0.3,3,1.2,3.1,2.7c0,0.3,0,0.7,0,0.8
			C565.1,601,564.2,601.1,562.5,601.4z M564.9,599.6c0-0.5-0.3-1.3-1.2-1.1c-0.9,0.1-1.2,0.9-1.2,1.5
			C563.4,599.9,563.9,599.8,564.9,599.6z"/>
		<path class="st11" d="M572,602.4c-0.1-0.3-0.1-0.4-0.2-0.6c0,0,0,0,0,0c-0.4,0.6-1.1,1-1.9,1.1c-1.4,0.2-2.2-0.6-2.3-1.6
			c-0.1-1.7,1.4-2.7,3.8-3.1c0,0,0-0.1,0-0.1c0-0.3-0.2-0.8-1.3-0.6c-0.7,0.1-1.4,0.5-1.8,0.8c-0.2-0.5-0.3-0.7-0.4-1.2
			c0.4-0.3,1.3-0.8,2.5-1c2.2-0.4,3,0.7,3.1,2.2c0.1,0.9,0.1,1.3,0.2,2.2c0,0.6,0.1,1.2,0.2,1.6C573.1,602.2,572.8,602.3,572,602.4z
			 M571.6,599.4c-1.1,0.2-1.9,0.6-1.9,1.4c0,0.5,0.4,0.7,0.9,0.6c0.5-0.1,0.9-0.5,1-0.9c0-0.1,0-0.2,0-0.4
			C571.6,599.8,571.6,599.7,571.6,599.4z"/>
		<path class="st11" d="M593.8,588.5c0.7-0.3,1.7-0.7,2.7-0.9c1.7-0.5,2.8-0.5,3.7-0.1c1,0.4,1.7,1.3,1.9,2.9c0.2,1.7-0.3,3.1-1,4.1
			c-0.9,1.1-2.3,1.9-4.1,2.4c-1.1,0.3-1.8,0.4-2.4,0.5C594.3,593.8,594.2,592,593.8,588.5z M596.6,595.2c0.2,0,0.5-0.1,0.7-0.2
			c1.9-0.5,2.9-1.9,2.7-4c-0.2-1.9-1.4-2.5-3.1-2c-0.4,0.1-0.7,0.2-0.9,0.3C596.2,591.7,596.4,592.9,596.6,595.2z"/>
		<path class="st11" d="M610,589.3c0.3,2.4-1.2,4-3,4.6c-1.9,0.6-3.5-0.2-3.8-2.3c-0.2-2.1,1-3.9,3-4.5
			C608.2,586.4,609.7,587.3,610,589.3z M605.3,590.9c0.1,1.1,0.7,1.8,1.6,1.5c0.8-0.3,1.2-1.2,1-2.4c-0.1-1-0.6-1.8-1.5-1.5
			C605.4,588.8,605.2,589.9,605.3,590.9z"/>
		<path class="st11" d="M616.6,590.3c-0.3,0.3-1,0.7-1.8,0.9c-2.1,0.7-3.6-0.1-3.9-2.1c-0.3-1.9,0.8-3.9,3.2-4.7
			c0.5-0.2,1.1-0.3,1.6-0.3c0,0.6,0,1-0.1,1.6c-0.3,0-0.6,0-1.1,0.2c-1,0.4-1.6,1.4-1.5,2.4c0.2,1.2,1.1,1.6,2,1.2
			c0.5-0.2,0.8-0.4,1.1-0.6C616.3,589.5,616.4,589.8,616.6,590.3z"/>
		<path class="st11" d="M618.8,586.9c0.2,0.8,1.1,0.9,2,0.6c0.7-0.3,1.2-0.6,1.7-0.9c0.2,0.5,0.3,0.8,0.5,1.3
			c-0.6,0.5-1.4,1-2.3,1.3c-2.2,0.8-3.7,0-3.9-2c-0.2-1.7,0.5-3.8,2.7-4.7c2.1-0.8,3.1,0.5,3.4,2.1c0.1,0.3,0.1,0.7,0.1,0.8
			C621.3,586,620.4,586.3,618.8,586.9z M620.9,584.7c-0.1-0.5-0.4-1.2-1.3-0.9c-0.8,0.3-1.1,1.2-1,1.8
			C619.5,585.2,620,585,620.9,584.7z"/>
		<path class="st11" d="M623.9,583c-0.1-0.8-0.3-1.5-0.4-2.1c0.7-0.3,1-0.4,1.7-0.7c0.1,0.3,0.1,0.5,0.2,0.9c0,0,0,0,0,0
			c0.2-0.5,0.7-1.4,1.8-1.8c1.3-0.5,2.4-0.1,2.8,1.8c0.3,1.5,0.4,2.3,0.7,3.9c-0.8,0.3-1.2,0.5-2,0.8c-0.2-1.4-0.4-2.2-0.6-3.6
			c-0.1-0.8-0.5-1.3-1.2-1c-0.5,0.2-0.8,0.7-0.9,1.2c0,0.1,0,0.4,0,0.5c0.2,1.5,0.4,2.3,0.6,3.8c-0.8,0.3-1.2,0.5-2,0.8
			C624.3,585.7,624.2,584.8,623.9,583z"/>
		<path class="st11" d="M632.9,575c0.1,0.7,0.2,1.1,0.3,1.9c0.6-0.2,0.8-0.4,1.4-0.6c0.1,0.6,0.2,0.9,0.3,1.5
			c-0.6,0.3-0.8,0.4-1.4,0.6c0.2,0.9,0.3,1.4,0.4,2.4c0.1,0.8,0.4,1.1,1,0.8c0.2-0.1,0.4-0.2,0.6-0.3c0.1,0.6,0.2,0.9,0.3,1.5
			c-0.2,0.2-0.7,0.5-1.3,0.7c-0.6,0.3-1.2,0.3-1.6,0.1c-0.4-0.2-0.7-0.8-0.9-1.7c-0.2-1.1-0.3-1.6-0.5-2.7c-0.3,0.1-0.5,0.2-0.8,0.4
			c-0.1-0.6-0.2-0.9-0.3-1.5c0.3-0.1,0.5-0.2,0.8-0.4c-0.1-0.6-0.2-0.8-0.3-1.4C631.9,575.8,632.2,575.5,632.9,575z"/>
		<path class="st11" d="M638,579c0.2,0.8,1.1,0.8,2,0.4c0.7-0.3,1.2-0.7,1.7-1.1c0.2,0.5,0.3,0.8,0.5,1.3c-0.6,0.6-1.4,1.1-2.2,1.5
			c-2.2,1-3.6,0.3-4-1.8c-0.3-1.7,0.4-3.9,2.5-4.9c2-0.9,3.1,0.3,3.4,1.9c0.1,0.3,0.1,0.7,0.1,0.8C640.5,577.9,639.6,578.2,638,579z
			 M640.1,576.5c-0.1-0.5-0.5-1.2-1.4-0.8c-0.8,0.4-1,1.3-1,1.9C638.7,577.2,639.1,577,640.1,576.5z"/>
		<path class="st11" d="M643.4,577.3c0.4,0.1,1.2,0,1.8-0.3c0.6-0.3,0.8-0.6,0.7-1c-0.1-0.3-0.3-0.4-1.1-0.3c-1.4,0.2-2-0.3-2.2-1.1
			c-0.2-1.2,0.6-2.6,2.1-3.4c0.7-0.4,1.4-0.5,1.8-0.5c0,0.6,0,0.9,0,1.6c-0.3,0-0.9,0-1.4,0.3c-0.5,0.2-0.7,0.6-0.6,0.9
			c0.1,0.3,0.3,0.3,1.2,0.2c1.3-0.2,1.9,0.2,2.1,1.2c0.3,1.2-0.5,2.6-2.3,3.5c-0.8,0.4-1.6,0.6-2.1,0.5
			C643.4,578.3,643.4,578,643.4,577.3z"/>
	</g>
</g>
<path class="st10" d="M522,443.9l-183.5,70.6c-10.1-22.4-15.3-46.3-15.3-70.6c0-10.2,0.9-20.4,2.7-30.4L522,443.9z"/>
<path class="st10" d="M522.1,442.4L326,413.1c3.4-19.9,10.4-39.2,20.5-57.1c9.8-17.2,22.4-32.9,37.3-46.4L522.1,442.4z"/>
<path class="st10" d="M522.7,441.5L382.8,309.9c16.2-15.2,35.1-27.7,55.9-36.8c20.1-8.8,41.6-14.5,63.7-16.6L522.7,441.5z"/>
<path id="SVGID_x5F_7_x5F_" class="st1" d="M635.1,435.5c0,81.9-62.4,148.2-139.4,148.2s-139.4-66.4-139.4-148.2
	s62.4-148.2,139.4-148.2S635.1,353.6,635.1,435.5z"/>
<text><textPath  xlink:href="#SVGID_x5F_7_x5F_" startOffset="103.2633%">
<tspan  class="st2 st8" style="font-size:11.9631px;">                                                                                                                                                                                                                                                                      Equipo Técnico                  Personero                 Contralor Escolar</tspan></textPath>
</text>
<path class="st12" d="M524.6,444.8L543.2,300c8.8,1,17.5,2.6,26,4.9c8.6,2.3,17.1,5.4,25.1,9.1L524.6,444.8z"/>
<path class="st12" d="M524.6,444.8l69.3-131c12.2,5.5,23.5,12.4,33.8,20.5c10.7,8.5,20.1,18.3,28,29.1L524.6,444.8z"/>
<path class="st12" d="M524.6,444.8L656,363.9c6.5,9,11.9,18.6,16.1,28.7c4.3,10.3,7.3,21,9,31.9L524.6,444.8z"/>
<path class="st12" d="M524.6,444.8L681,424.1c1.1,6.9,1.6,13.8,1.6,20.7c0,18.8-3.9,37.4-11.6,54.9L524.6,444.8z"/>
<path id="SVGID_x5F_8_x5F_" class="st1" d="M520.4,535.8c-63.3-11.3-106-68.1-95.5-126.7s70.3-97,133.6-85.7s106,68.1,95.5,126.7
	C643.5,508.7,583.7,547.1,520.4,535.8z"/>
<text><textPath  xlink:href="#SVGID_x5F_8_x5F_" startOffset="104.8027%">
<tspan  class="st2 st8" style="font-size:13.3956px;">                                                                                                                                                                                                                                           </tspan><tspan  class="st2 st8" style="font-size:11.2624px;">Biblioteca      Psicorientación    Restaurante       Egresados </tspan><tspan  class="st2 st8" style="font-size:13.3956px;">           </tspan></textPath>
</text>
<path class="st13" d="M526.2,445l133.5,78c-10.6,15.5-24.3,29-40.4,39.8c-15.2,10.2-32.2,17.9-50.3,22.6L526.2,445z"/>
<path class="st13" d="M524.6,444.8l44.8,139.8c-14.5,4-29.6,6-44.8,6c-21.9,0-43.6-4.2-63.7-12.4L524.6,444.8z"/>
<path class="st13" d="M524.6,444.8l-89.7,120c-8.5-5.4-16.5-11.6-23.7-18.5c-7.4-7.1-14.1-14.8-19.8-23.1L524.6,444.8z"/>
<polygon class="st13" points="524.2,443.4 435.5,564.9 461.8,578.4 "/>
<path class="st12" d="M524.6,444.8l-146.4,54.7c-7.6-17.4-11.5-36-11.5-54.7c0-8.6,0.8-17.2,2.5-25.7L524.6,444.8z"/>
<path class="st12" d="M524.6,444.8l-155.7-24.7c2.8-15.3,8.3-30,16.2-43.7c7.6-13.2,17.3-25.2,28.9-35.6L524.6,444.8z"/>
<path class="st12" d="M524.6,444.8L413.5,341.2c12.6-11.5,27.2-21,43.3-28c15.4-6.7,31.8-11.2,48.7-13.1L524.6,444.8z"/>
<path class="st14" d="M523,443.9l97.6,58.9c-20.7,29.4-55.6,47.8-93.4,49.3c-40.6,1.6-79.2-16.6-101.6-48L523,443.9z"/>
<g>
	<g>
		<path class="st11" d="M413.7,523.5c0.4,0.2,0.9,0.5,1.6,1c0.7,0.5,1.1,1.1,1.4,1.7c0.2,0.6,0.2,1.3,0,2c-0.2,0.7-0.6,1.1-1,1.3
			c-0.6,0.2-1.2,0-1.9-0.5c-0.2-0.1-0.3-0.2-0.4-0.3c-0.3,1-0.5,1.5-0.9,2.5c-0.5-0.4-0.7-0.5-1.2-0.9
			C412.2,527.6,412.7,526.2,413.7,523.5z M413.7,527.5c0.1,0.1,0.2,0.2,0.4,0.3c0.6,0.5,1.1,0.3,1.4-0.4c0.2-0.6,0-1.3-0.5-1.7
			c-0.2-0.2-0.4-0.3-0.5-0.3C414.1,526.3,414,526.7,413.7,527.5z"/>
		<path class="st11" d="M416.8,530.2c0.3-0.7,0.4-1.2,0.5-1.7c0.4,0.3,0.6,0.4,1,0.7c-0.1,0.4-0.2,0.6-0.3,1c0,0,0,0,0,0
			c0.4-0.6,1-0.6,1.4-0.3c0.1,0.1,0.2,0.1,0.2,0.2c-0.2,0.6-0.3,0.9-0.5,1.5c-0.1-0.1-0.2-0.2-0.3-0.3c-0.4-0.3-0.8-0.2-1.1,0.2
			c-0.1,0.1-0.1,0.2-0.1,0.3c-0.3,1-0.5,1.5-0.8,2.6c-0.5-0.3-0.7-0.5-1.2-0.9C416.1,532.3,416.3,531.6,416.8,530.2z"/>
		<path class="st11" d="M419.7,532.3c0.2-0.7,0.4-1.2,0.5-1.7c0.4,0.3,0.6,0.4,1,0.7c-0.1,0.4-0.2,0.6-0.3,1c0,0,0,0,0,0
			c0.4-0.6,1-0.6,1.3-0.4c0.1,0.1,0.2,0.1,0.2,0.2c-0.2,0.6-0.3,0.9-0.5,1.5c-0.1-0.1-0.2-0.2-0.3-0.3c-0.4-0.3-0.8-0.2-1.1,0.3
			c0,0.1-0.1,0.2-0.1,0.3c-0.3,1-0.5,1.6-0.8,2.6c-0.5-0.3-0.7-0.5-1.2-0.8C419,534.4,419.2,533.7,419.7,532.3z"/>
		<path class="st11" d="M423,536.3c-0.2,0.7,0.2,1.3,0.8,1.7c0.4,0.3,0.7,0.4,1.1,0.5c-0.1,0.5-0.1,0.7-0.2,1.2
			c-0.4,0-1-0.2-1.5-0.6c-1.3-0.9-1.7-2.4-1.2-4c0.4-1.3,1.5-2.3,2.7-1.5c1.2,0.8,1.3,2.4,0.9,3.7c-0.1,0.3-0.2,0.5-0.2,0.6
			C424.4,537.3,424,537,423,536.3z M424.7,536.1c0.1-0.4,0.2-1.1-0.3-1.5c-0.5-0.3-0.9,0.1-1,0.6
			C423.9,535.6,424.2,535.8,424.7,536.1z"/>
		<path class="st11" d="M426,539.1c0.2,0.3,0.5,0.8,0.9,1c0.4,0.2,0.6,0.2,0.6-0.1s0-0.5-0.4-0.9c-0.7-0.9-0.8-1.6-0.6-2.2
			c0.3-0.9,1.1-1.3,2-0.7c0.4,0.3,0.8,0.7,1,1c-0.2,0.4-0.3,0.6-0.5,1c-0.1-0.2-0.4-0.6-0.7-0.8c-0.3-0.2-0.5-0.1-0.6,0.1
			c-0.1,0.2,0,0.5,0.4,1c0.6,0.8,0.8,1.5,0.6,2.2c-0.3,1-1,1.3-2.1,0.6c-0.5-0.3-0.9-0.8-1.1-1.2C425.6,539.7,425.7,539.5,426,539.1
			z"/>
		<path class="st11" d="M431.8,544.2c-0.2,0-0.7-0.1-1.1-0.4c-1.2-0.7-1.7-2.3-1.2-3.9c0.4-1.5,1.6-2.3,2.9-1.4
			c0.3,0.2,0.6,0.5,0.8,0.7c-0.2,0.4-0.3,0.7-0.5,1.1c-0.1-0.2-0.3-0.4-0.6-0.6c-0.6-0.4-1.2,0-1.4,0.8c-0.3,1,0,1.7,0.6,2.1
			c0.3,0.2,0.5,0.2,0.7,0.2C431.9,543.4,431.8,543.7,431.8,544.2z"/>
		<path class="st11" d="M436.7,544.2c-0.5,1.9-1.7,2.3-2.7,1.7c-1.1-0.6-1.7-2.2-1.2-3.9c0.5-1.7,1.6-2.3,2.8-1.6
			C436.7,541.1,437.1,542.6,436.7,544.2z M434,542.6c-0.2,0.9-0.2,1.7,0.3,2c0.5,0.3,0.9-0.2,1.2-1.1c0.2-0.8,0.2-1.7-0.3-2
			C434.6,541.2,434.2,541.9,434,542.6z"/>
		<path class="st11" d="M438.8,539.7c0.5,0.3,0.7,0.4,1.1,0.6c-0.8,3-1.2,4.6-2,7.6c-0.5-0.3-0.7-0.4-1.2-0.7
			C437.5,544.2,438,542.7,438.8,539.7z"/>
		<path class="st11" d="M441,549.6c0-0.2,0-0.3,0.1-0.6c0,0,0,0,0,0c-0.4,0.3-0.8,0.3-1.2,0.1c-0.8-0.4-1-1.4-0.8-2.3
			c0.4-1.4,1.4-1.5,2.7-0.8c0,0,0,0,0-0.1c0.1-0.3,0.1-0.7-0.5-1c-0.4-0.2-0.8-0.2-1.1-0.2c0-0.5,0-0.7,0.1-1.2
			c0.3-0.1,0.9,0,1.6,0.3c1.2,0.7,1.4,1.9,1.1,3.1c-0.2,0.7-0.3,1.1-0.4,1.8c-0.1,0.5-0.2,1-0.3,1.3
			C441.6,549.9,441.4,549.8,441,549.6z M441.5,547c-0.6-0.3-1.1-0.4-1.3,0.2c-0.1,0.4,0,0.7,0.3,0.9c0.3,0.2,0.6,0,0.8-0.3
			c0-0.1,0.1-0.2,0.1-0.3C441.4,547.4,441.4,547.3,441.5,547z"/>
		<path class="st11" d="M443.8,547.1c0.2-0.8,0.3-1.3,0.4-1.8c0.4,0.2,0.6,0.3,1,0.5c-0.1,0.4-0.1,0.6-0.2,1c0,0,0,0,0,0
			c0.4-0.7,0.9-0.8,1.3-0.6c0.1,0.1,0.2,0.1,0.2,0.1c-0.1,0.6-0.2,0.9-0.4,1.6c-0.1-0.1-0.2-0.1-0.3-0.2c-0.4-0.2-0.8,0-1,0.4
			c0,0.1-0.1,0.2-0.1,0.4c-0.3,1.1-0.4,1.6-0.6,2.7c-0.5-0.2-0.7-0.4-1.2-0.6C443.3,549.2,443.4,548.5,443.8,547.1z"/>
		<path class="st11" d="M449.1,545.6c0.3,0.1,0.9,0.3,1.5,0.6c0.7,0.3,1.1,0.6,1.4,1.1c0.3,0.4,0.4,1.1,0.3,1.7
			c-0.1,0.7-0.5,1.2-1.2,1.2c0,0,0,0,0,0c0.5,0.5,0.8,1.3,0.6,2.3c-0.1,0.7-0.5,1.1-0.9,1.3c-0.5,0.3-1.2,0.2-2.2-0.3
			c-0.6-0.3-1-0.5-1.2-0.7C448.1,550,448.5,548.5,449.1,545.6z M449.6,549c0.2,0.1,0.2,0.1,0.4,0.2c0.6,0.3,1,0.1,1.1-0.5
			c0.1-0.6-0.1-1-0.6-1.2c-0.2-0.1-0.4-0.2-0.5-0.2C449.9,548,449.8,548.3,449.6,549z M448.9,552.3c0.1,0.1,0.2,0.1,0.4,0.2
			c0.5,0.3,1.1,0.2,1.2-0.6c0.2-0.7-0.2-1.3-0.8-1.5c-0.2-0.1-0.2-0.1-0.4-0.2C449.2,551,449.1,551.4,448.9,552.3z"/>
		<path class="st11" d="M454.2,556c0-0.2,0-0.3,0-0.6c0,0,0,0,0,0c-0.3,0.3-0.8,0.4-1.2,0.2c-0.8-0.3-1.1-1.3-0.9-2.2
			c0.3-1.4,1.3-1.7,2.6-1.1c0,0,0,0,0-0.1c0.1-0.3,0-0.7-0.5-1c-0.4-0.2-0.8-0.2-1.1-0.1c0-0.5,0-0.7,0-1.2c0.3-0.1,0.9-0.1,1.5,0.2
			c1.2,0.5,1.4,1.8,1.1,3c-0.2,0.7-0.2,1.1-0.4,1.9c-0.1,0.5-0.2,1-0.2,1.3C454.9,556.3,454.7,556.2,454.2,556z M456.5,548.5
			c-0.5,0.5-0.8,0.8-1.3,1.3c-0.3-0.1-0.5-0.2-0.8-0.3c0.4-0.6,0.6-0.8,1-1.4C455.8,548.3,456,548.4,456.5,548.5z M454.6,553.4
			c-0.6-0.3-1.1-0.3-1.3,0.4c-0.1,0.4,0.1,0.7,0.3,0.8c0.3,0.1,0.6,0,0.7-0.4c0-0.1,0.1-0.2,0.1-0.3
			C454.6,553.7,454.6,553.6,454.6,553.4z"/>
		<path class="st11" d="M456.4,555.3c0.2,0.3,0.6,0.7,0.9,0.8c0.4,0.1,0.5,0,0.6-0.2c0.1-0.3,0-0.5-0.4-0.8
			c-0.7-0.7-0.9-1.4-0.7-2.1c0.2-1,0.9-1.5,1.9-1.1c0.4,0.2,0.8,0.5,1,0.7c-0.2,0.4-0.3,0.7-0.4,1.1c-0.1-0.2-0.4-0.5-0.7-0.6
			c-0.3-0.1-0.5,0-0.5,0.3c-0.1,0.3,0.1,0.4,0.5,0.9c0.6,0.6,0.8,1.3,0.7,2.1c-0.2,1-0.9,1.5-2,1.1c-0.5-0.2-0.9-0.5-1.1-0.9
			C456.2,556,456.2,555.8,456.4,555.3z"/>
		<path class="st11" d="M462,551.7c-0.1,0.5-0.4,0.8-0.8,0.6c-0.4-0.1-0.5-0.6-0.4-1.1c0.1-0.5,0.4-0.8,0.8-0.6
			C461.9,550.8,462.1,551.2,462,551.7z M459.5,558.2c0.4-2.2,0.6-3.3,1-5.4c0.5,0.2,0.7,0.3,1.1,0.5c-0.4,2.2-0.6,3.3-1,5.4
			C460.2,558.5,460,558.4,459.5,558.2z"/>
		<path class="st11" d="M464.4,559.9c-0.2,0.1-0.6,0-1.1-0.1c-1.2-0.5-1.8-1.8-1.5-3.5c0.3-1.6,1.3-2.6,2.7-2.1
			c0.3,0.1,0.6,0.3,0.8,0.5c-0.2,0.5-0.2,0.7-0.4,1.2c-0.1-0.1-0.3-0.3-0.6-0.4c-0.6-0.2-1.1,0.3-1.3,1.1c-0.2,1,0.2,1.7,0.7,1.9
			c0.3,0.1,0.5,0.1,0.7,0.1C464.5,559.2,464.5,559.4,464.4,559.9z"/>
		<path class="st11" d="M467.2,561.1c0-0.2,0-0.3,0-0.6c0,0,0,0,0,0c-0.3,0.4-0.7,0.5-1.2,0.3c-0.8-0.3-1.1-1.2-0.9-2.1
			c0.2-1.4,1.2-1.8,2.5-1.3c0,0,0,0,0-0.1c0-0.3,0-0.7-0.6-0.9c-0.4-0.1-0.8-0.1-1.1,0.1c0-0.5,0-0.7,0-1.2c0.3-0.1,0.8-0.2,1.5,0
			c1.2,0.4,1.4,1.6,1.2,2.9c-0.1,0.8-0.2,1.1-0.3,1.9c-0.1,0.5-0.1,1-0.2,1.4C467.9,561.3,467.6,561.2,467.2,561.1z M467.5,558.4
			c-0.6-0.2-1.1-0.2-1.2,0.5c-0.1,0.4,0.1,0.7,0.3,0.8c0.3,0.1,0.6-0.1,0.7-0.4c0-0.1,0.1-0.2,0.1-0.3
			C467.5,558.8,467.5,558.7,467.5,558.4z"/>
		<path class="st11" d="M475.5,560.7c0.1-0.9,0.2-2,0.4-3.1c0,0,0,0,0,0c-0.3,0.9-0.7,1.9-1,2.8c-0.4,1.1-0.6,1.7-1,2.8
			c-0.4-0.1-0.5-0.2-0.9-0.3c-0.1-1.2-0.1-1.9-0.1-3.1c0-0.9,0-2.1,0-3.1c0,0,0,0,0,0c-0.2,1-0.4,2.2-0.6,3.1
			c-0.2,1.1-0.3,1.7-0.5,2.9c-0.4-0.1-0.7-0.2-1.1-0.4c0.6-3,0.9-4.5,1.5-7.5c0.6,0.2,0.9,0.3,1.5,0.5c0,1.1,0.1,1.6,0.1,2.7
			c0,0.9,0,1.9,0,2.8c0,0,0,0,0,0c0.3-0.8,0.6-1.8,0.9-2.6c0.4-0.9,0.5-1.4,0.9-2.4c0.6,0.2,0.9,0.3,1.5,0.4
			c-0.3,3.1-0.4,4.6-0.7,7.7c-0.5-0.1-0.7-0.2-1.1-0.3C475.3,562.4,475.4,561.8,475.5,560.7z"/>
		<path class="st11" d="M478.4,562.2c-0.1,0.7,0.4,1.2,0.9,1.3c0.4,0.1,0.7,0.1,1.1,0c0,0.5,0,0.7,0,1.2c-0.4,0.1-0.9,0.1-1.4,0
			c-1.3-0.3-1.9-1.6-1.6-3.4c0.2-1.4,1-2.8,2.3-2.4c1.2,0.3,1.5,1.8,1.3,3.2c0,0.3-0.1,0.6-0.1,0.7
			C479.8,562.6,479.4,562.5,478.4,562.2z M479.9,561.4c0.1-0.4,0-1.2-0.5-1.3c-0.5-0.1-0.8,0.5-0.9,0.9
			C479.1,561.2,479.4,561.3,479.9,561.4z"/>
		<path class="st11" d="M485.7,558c-0.3,2.6-0.4,3.9-0.7,6.4c-0.1,0.6-0.1,1.3-0.1,1.7c-0.4-0.1-0.6-0.1-1-0.2c0-0.3,0-0.5,0-0.8
			c0,0,0,0,0,0c-0.3,0.6-0.8,0.8-1.3,0.7c-0.9-0.2-1.5-1.5-1.3-3.3c0.2-1.9,1.1-2.8,2-2.5c0.4,0.1,0.8,0.4,0.9,0.9c0,0,0,0,0,0
			c0.1-1.2,0.2-1.8,0.3-3C485.1,557.9,485.3,557.9,485.7,558z M484.1,562.6c0-0.1,0-0.2,0-0.3c0-0.5-0.2-0.9-0.6-1
			c-0.5-0.1-0.9,0.5-1,1.4c-0.1,0.9,0.1,1.6,0.6,1.7c0.3,0.1,0.6-0.2,0.8-0.7c0-0.1,0.1-0.2,0.1-0.4
			C484,563.1,484,562.9,484.1,562.6z"/>
		<path class="st11" d="M487.7,559.5c0,0.5-0.3,0.8-0.7,0.7c-0.4-0.1-0.5-0.5-0.5-1c0.1-0.5,0.3-0.8,0.7-0.7
			C487.6,558.5,487.8,559,487.7,559.5z M485.8,566.4c0.2-2.2,0.3-3.4,0.6-5.6c0.5,0.1,0.7,0.2,1.1,0.3c-0.2,2.2-0.3,3.4-0.6,5.6
			C486.5,566.5,486.3,566.5,485.8,566.4z"/>
		<path class="st11" d="M490,567.2c0-0.2,0-0.3,0-0.6c0,0,0,0,0,0c-0.3,0.4-0.7,0.6-1.1,0.5c-0.8-0.2-1.1-1.1-1-2
			c0.1-1.5,1.1-2,2.4-1.7c0,0,0,0,0-0.1c0-0.3,0-0.7-0.6-0.9c-0.4-0.1-0.8,0-1.1,0.2c0-0.5-0.1-0.7-0.1-1.2c0.3-0.2,0.8-0.3,1.5-0.2
			c1.2,0.2,1.5,1.4,1.4,2.7c-0.1,0.8-0.1,1.2-0.2,2c0,0.5-0.1,1.1-0.1,1.4C490.7,567.4,490.5,567.3,490,567.2z M490.1,564.6
			c-0.6-0.1-1.1,0-1.2,0.7c0,0.4,0.1,0.7,0.4,0.8c0.3,0.1,0.6-0.2,0.7-0.5c0-0.1,0-0.2,0-0.3C490.1,564.9,490.1,564.8,490.1,564.6z"
			/>
		<path class="st11" d="M494.7,561.8c-0.5-0.1-0.8-0.1-1.3-0.2c0.1-0.6,0.1-0.9,0.1-1.5c1.5,0.3,2.3,0.4,3.8,0.6
			c0,0.6-0.1,0.9-0.1,1.5c-0.5-0.1-0.8-0.1-1.4-0.2c-0.2,2.5-0.3,3.8-0.5,6.3c-0.5-0.1-0.7-0.1-1.2-0.2
			C494.4,565.5,494.5,564.3,494.7,561.8z"/>
		<path class="st11" d="M497.8,566.3c0,0.7,0.4,1.1,1,1.2c0.4,0.1,0.7,0,1-0.1c0,0.5,0,0.7,0.1,1.2c-0.4,0.2-0.9,0.2-1.4,0.2
			c-1.3-0.2-1.9-1.4-1.8-3.2c0.1-1.4,0.8-2.9,2.1-2.7c1.2,0.2,1.5,1.6,1.5,3c0,0.3-0.1,0.6-0.1,0.7
			C499.3,566.5,498.8,566.5,497.8,566.3z M499.3,565.3c0-0.4-0.1-1.2-0.6-1.2c-0.5-0.1-0.7,0.6-0.8,1
			C498.4,565.2,498.7,565.2,499.3,565.3z M500.2,560.8c-0.4,0.7-0.6,1-1,1.6c-0.3,0-0.5-0.1-0.8-0.1c0.3-0.7,0.5-1,0.8-1.7
			C499.5,560.7,499.7,560.7,500.2,560.8z"/>
		<path class="st11" d="M503.6,569.2c-0.2,0.1-0.6,0.2-1.1,0.1c-1.2-0.1-1.9-1.4-1.8-3.1c0.1-1.7,0.9-2.9,2.3-2.7
			c0.3,0,0.6,0.2,0.9,0.3c-0.1,0.5-0.1,0.8-0.2,1.3c-0.1-0.1-0.3-0.2-0.6-0.2c-0.6-0.1-1,0.5-1.1,1.5c-0.1,1,0.4,1.6,0.9,1.7
			c0.3,0,0.5,0,0.7-0.1C503.6,568.4,503.6,568.7,503.6,569.2z"/>
		<path class="st11" d="M504.4,565.6c0-0.7,0-1.3,0.1-1.8c0.4,0,0.6,0.1,1,0.1c0,0.3,0,0.5,0,0.8c0,0,0,0,0,0
			c0.2-0.3,0.6-0.8,1.2-0.8c0.7,0.1,1.3,0.9,1.2,2.5c0,1.3-0.1,2-0.1,3.4c-0.5,0-0.7-0.1-1.2-0.1c0-1.3,0.1-1.9,0.1-3.1
			c0-0.7-0.1-1.2-0.5-1.3c-0.3,0-0.5,0.3-0.6,0.6c0,0.1-0.1,0.3-0.1,0.4c-0.1,1.3-0.1,2-0.1,3.3c-0.5,0-0.7-0.1-1.2-0.1
			C504.3,567.9,504.4,567.1,504.4,565.6z"/>
		<path class="st11" d="M510.1,562.7c0,0.5-0.3,0.9-0.6,0.8c-0.4,0-0.6-0.5-0.6-0.9c0-0.5,0.3-0.9,0.6-0.8
			C509.9,561.8,510.2,562.2,510.1,562.7z M508.7,569.9c0.1-2.3,0.1-3.4,0.2-5.7c0.5,0,0.7,0.1,1.1,0.1c-0.1,2.3-0.1,3.4-0.2,5.7
			C509.4,569.9,509.2,569.9,508.7,569.9z"/>
		<path class="st11" d="M513.6,570.1c-0.2,0.1-0.6,0.2-1,0.2c-1.2-0.1-2-1.3-1.9-3c0-1.7,0.8-3,2.2-2.9c0.3,0,0.6,0.1,0.9,0.3
			c-0.1,0.5-0.1,0.8-0.2,1.3c-0.1-0.1-0.3-0.2-0.6-0.2c-0.6,0-1,0.6-1,1.5c0,1,0.4,1.6,1,1.7c0.3,0,0.5,0,0.7-0.1
			C513.6,569.3,513.6,569.6,513.6,570.1z"/>
		<path class="st11" d="M516.4,570.4c0-0.2,0-0.3-0.1-0.6c0,0,0,0,0,0c-0.2,0.4-0.6,0.7-1.1,0.6c-0.8,0-1.2-0.9-1.2-1.8
			c0-1.5,0.9-2.1,2.2-2.1c0,0,0,0,0-0.1c0-0.3-0.1-0.7-0.7-0.8c-0.4,0-0.8,0.2-1,0.4c-0.1-0.5-0.1-0.7-0.2-1.2
			c0.3-0.2,0.8-0.5,1.4-0.4c1.2,0.1,1.6,1.2,1.6,2.5c0,0.8,0,1.2,0,2c0,0.5,0,1.1,0,1.4C517.1,570.4,516.9,570.4,516.4,570.4z
			 M516.3,567.7c-0.6,0-1.1,0.2-1.1,0.8c0,0.5,0.2,0.7,0.4,0.7c0.3,0,0.5-0.3,0.6-0.6c0-0.1,0-0.2,0-0.3
			C516.3,568.1,516.3,567.9,516.3,567.7z"/>
		<path class="st11" d="M520.7,564.8c0.2,1.1,0.3,1.7,0.6,2.8c0.1,0.3,0.1,0.8,0.2,1.1c0,0,0,0,0,0c0.1-0.3,0.1-0.7,0.2-1.1
			c0.2-1.1,0.3-1.7,0.4-2.8c0.5,0,0.7,0,1.2,0c-0.3,1.5-0.5,2.2-0.8,3.7c-0.5,2.3-0.9,3.2-1.3,3.7c-0.4,0.5-0.8,0.7-1.1,0.8
			c-0.1-0.6-0.1-0.9-0.2-1.5c0.1,0,0.3-0.1,0.5-0.3c0.2-0.1,0.4-0.4,0.5-0.7c0-0.1,0.1-0.2,0.1-0.3c0-0.1,0-0.2-0.1-0.3
			c-0.6-2.1-0.8-3.1-1.3-5.2C520,564.8,520.2,564.8,520.7,564.8z"/>
		<path class="st11" d="M526.6,568.5c-0.1,0.8-0.2,1.2-0.3,2c-0.5,0-0.7,0-1.2,0c0.6-3.1,0.9-4.7,1.4-7.8c0.6,0,0.9,0,1.5,0
			c0.7,3.1,1.1,4.7,1.8,7.8c-0.5,0-0.8,0-1.3,0c-0.2-0.8-0.3-1.2-0.4-2C527.5,568.5,527.2,568.5,526.6,568.5z M527.9,567.1
			c-0.1-0.7-0.2-1-0.4-1.7c-0.1-0.5-0.2-1-0.3-1.5c0,0,0,0,0,0c-0.1,0.5-0.1,1.1-0.2,1.5c-0.1,0.7-0.2,1-0.3,1.7
			C527.2,567.1,527.4,567.1,527.9,567.1z"/>
		<path class="st11" d="M533.1,570.1c-0.2,0.2-0.6,0.3-1,0.3c-1.2,0.1-2-1-2.1-2.8c0-1.7,0.6-3,2-3.1c0.3,0,0.6,0,0.9,0.2
			c0,0.5-0.1,0.8-0.1,1.3c-0.1-0.1-0.3-0.2-0.6-0.1c-0.6,0-1,0.7-0.9,1.6c0,1,0.5,1.6,1.1,1.5c0.3,0,0.5-0.1,0.7-0.2
			C533,569.3,533.1,569.6,533.1,570.1z"/>
		<path class="st11" d="M535.9,570.1c0-0.2-0.1-0.3-0.1-0.6c0,0,0,0,0,0c-0.2,0.5-0.6,0.7-1,0.8c-0.8,0-1.2-0.8-1.3-1.7
			c-0.1-1.5,0.8-2.2,2.1-2.3c0,0,0,0,0-0.1c0-0.3-0.1-0.7-0.7-0.7c-0.4,0-0.8,0.2-1,0.5c-0.1-0.5-0.2-0.7-0.3-1.1
			c0.2-0.2,0.7-0.5,1.4-0.6c1.2-0.1,1.7,1,1.7,2.3c0,0.8,0.1,1.2,0.1,2c0,0.5,0.1,1.1,0.1,1.4C536.6,570,536.3,570,535.9,570.1z
			 M535.7,567.4c-0.6,0-1.1,0.3-1,1c0,0.5,0.2,0.7,0.5,0.6c0.3,0,0.5-0.3,0.6-0.7c0-0.1,0-0.2,0-0.3
			C535.7,567.8,535.7,567.6,535.7,567.4z"/>
		<path class="st11" d="M540.9,561.3c0.2,2.6,0.3,3.9,0.4,6.6c0,0.6,0.1,1.3,0.1,1.7c-0.4,0-0.6,0.1-1,0.1c0-0.3-0.1-0.5-0.1-0.8
			c0,0,0,0,0,0c-0.2,0.7-0.6,1-1.1,1.1c-0.9,0.1-1.7-1-1.7-2.8c-0.1-1.9,0.6-3.1,1.5-3.2c0.4,0,0.8,0.2,1,0.6c0,0,0,0,0,0
			c-0.1-1.2-0.1-1.9-0.2-3.1C540.2,561.4,540.5,561.4,540.9,561.3z M540.1,566.4c0-0.1,0-0.2,0-0.3c-0.1-0.5-0.4-0.8-0.7-0.8
			c-0.5,0-0.8,0.8-0.7,1.7c0.1,1,0.4,1.5,0.9,1.5c0.3,0,0.6-0.4,0.6-0.9c0-0.1,0-0.3,0-0.4C540.1,566.9,540.1,566.7,540.1,566.4z"/>
		<path class="st11" d="M543.1,567.1c0.1,0.7,0.6,1,1.1,1c0.4,0,0.7-0.2,1-0.4c0.1,0.5,0.1,0.7,0.2,1.2c-0.4,0.3-0.8,0.5-1.3,0.5
			c-1.3,0.1-2.1-0.9-2.2-2.7c-0.1-1.4,0.4-3.1,1.7-3.2c1.2-0.1,1.7,1.2,1.9,2.6c0,0.3,0,0.6,0,0.7C544.6,567,544.1,567,543.1,567.1z
			 M544.4,565.8c0-0.4-0.2-1.1-0.7-1.1c-0.5,0.1-0.6,0.7-0.6,1.2C543.6,565.9,543.9,565.8,544.4,565.8z M544.7,561
			c-0.3,0.8-0.5,1.1-0.8,1.9c-0.3,0-0.5,0.1-0.8,0.1c0.2-0.7,0.3-1.1,0.5-1.8C544,561.1,544.3,561.1,544.7,561z"/>
		<path class="st11" d="M546.2,565.2c-0.1-0.7-0.1-1.3-0.2-1.8c0.4,0,0.6-0.1,1-0.1c0,0.3,0.1,0.5,0.1,0.8c0,0,0,0,0,0
			c0.1-0.4,0.4-1,1-1c0.5-0.1,0.9,0.3,1.1,0.8c0,0,0,0,0,0c0.1-0.3,0.3-0.6,0.4-0.8c0.2-0.2,0.4-0.3,0.7-0.4
			c0.7-0.1,1.3,0.6,1.5,2.3c0.1,1.3,0.2,2,0.3,3.3c-0.5,0.1-0.7,0.1-1.1,0.2c-0.1-1.2-0.2-1.9-0.3-3.1c-0.1-0.8-0.3-1.3-0.7-1.2
			c-0.3,0-0.4,0.3-0.5,0.7c0,0.1,0,0.3,0,0.5c0.1,1.3,0.2,2,0.3,3.3c-0.5,0.1-0.7,0.1-1.1,0.2c-0.1-1.3-0.2-1.9-0.3-3.2
			c-0.1-0.7-0.3-1.2-0.6-1.1c-0.3,0-0.4,0.4-0.5,0.7c0,0.1,0,0.3,0,0.4c0.1,1.3,0.2,2,0.3,3.3c-0.5,0.1-0.7,0.1-1.1,0.1
			C546.3,567.5,546.3,566.7,546.2,565.2z"/>
		<path class="st11" d="M553,568.1c-0.2-2.3-0.3-3.4-0.5-5.7c0.5-0.1,0.7-0.1,1.1-0.2c0.2,2.3,0.3,3.4,0.6,5.7
			C553.7,568,553.5,568,553,568.1z M553.5,560.7c0.1,0.5-0.1,0.9-0.5,1c-0.4,0.1-0.6-0.3-0.7-0.8c0-0.5,0.1-0.9,0.5-1
			C553.2,559.8,553.5,560.2,553.5,560.7z"/>
		<path class="st11" d="M558,567.1c-0.2,0.2-0.6,0.4-1,0.5c-1.2,0.2-2.1-0.8-2.3-2.6c-0.2-1.7,0.4-3.1,1.8-3.4
			c0.3-0.1,0.6,0,0.9,0.1c0,0.5,0,0.8,0,1.3c-0.1-0.1-0.4-0.1-0.7-0.1c-0.6,0.1-0.9,0.8-0.8,1.8c0.1,1,0.6,1.5,1.2,1.4
			c0.3-0.1,0.5-0.2,0.6-0.3C557.8,566.3,557.9,566.6,558,567.1z"/>
		<path class="st11" d="M560.8,566.7c-0.1-0.2-0.1-0.3-0.1-0.6c0,0,0,0,0,0c-0.2,0.5-0.6,0.8-1,0.9c-0.8,0.1-1.3-0.6-1.4-1.5
			c-0.2-1.5,0.6-2.3,2-2.6c0,0,0,0,0-0.1c0-0.3-0.2-0.7-0.8-0.6c-0.4,0.1-0.8,0.3-1,0.6c-0.1-0.4-0.2-0.7-0.3-1.1
			c0.2-0.3,0.7-0.6,1.4-0.8c1.2-0.2,1.8,0.8,1.9,2.1c0.1,0.8,0.1,1.2,0.2,2c0.1,0.5,0.1,1.1,0.2,1.4
			C561.4,566.6,561.2,566.6,560.8,566.7z M560.3,564c-0.6,0.1-1.1,0.4-1,1.1c0,0.5,0.3,0.6,0.5,0.6c0.3-0.1,0.5-0.4,0.5-0.8
			c0-0.1,0-0.2,0-0.3C560.4,564.4,560.4,564.3,560.3,564z"/>
		<path class="st11" d="M567,561.9c-0.8,0.2-1.1,0.3-1.9,0.4c0.1,0.7,0.1,1.1,0.2,1.9c0.9-0.2,1.3-0.3,2.1-0.5
			c0.1,0.6,0.1,0.9,0.2,1.4c-1.3,0.3-2,0.5-3.3,0.8c-0.4-3.1-0.6-4.7-0.9-7.8c1.2-0.3,1.9-0.4,3.1-0.7c0.1,0.6,0.1,0.9,0.2,1.4
			c-0.8,0.2-1.2,0.3-2,0.5c0.1,0.6,0.1,1,0.2,1.6c0.8-0.2,1.1-0.3,1.9-0.4C566.9,561.1,566.9,561.4,567,561.9z"/>
		<path class="st11" d="M570.8,555.9c0.4,2.6,0.6,3.9,1,6.5c0.1,0.6,0.2,1.3,0.3,1.7c-0.4,0.1-0.6,0.2-1,0.3
			c-0.1-0.3-0.1-0.5-0.2-0.8c0,0,0,0,0,0c-0.2,0.7-0.6,1.1-1.1,1.3c-0.9,0.2-1.8-0.8-2-2.5c-0.2-1.9,0.4-3.2,1.3-3.4
			c0.5-0.1,0.8,0,1.1,0.4c0,0,0,0,0,0c-0.2-1.2-0.3-1.8-0.4-3.1C570.1,556.1,570.4,556,570.8,555.9z M570.4,561.1
			c0-0.1,0-0.2-0.1-0.3c-0.1-0.5-0.4-0.8-0.8-0.7c-0.5,0.1-0.7,0.9-0.6,1.8c0.1,1,0.5,1.5,1,1.4c0.3-0.1,0.6-0.5,0.6-1
			c0-0.1,0-0.3,0-0.4C570.4,561.6,570.4,561.4,570.4,561.1z"/>
		<path class="st11" d="M572.7,563c-0.1-0.6,0.1-1.1,0.5-1.3c0.4-0.1,0.8,0.3,0.8,0.9c0.1,0.6-0.1,1.1-0.5,1.2
			C573.1,563.9,572.8,563.6,572.7,563z"/>
		<path class="st11" d="M576.4,554.8c0.5-0.1,0.7-0.2,1.1-0.3c0.3,2,0.5,2.9,0.8,4.9c0.3,2.2-0.3,3.2-1.4,3.5
			c-0.3,0.1-0.6,0.1-0.9,0.1c0-0.6,0-0.9-0.1-1.5c0.2,0,0.4,0,0.6,0c0.5-0.1,0.8-0.6,0.6-1.8C576.8,557.8,576.7,556.8,576.4,554.8z"
			/>
		<path class="st11" d="M583,557.9c0.3,2.1-0.5,3.3-1.5,3.6c-1.1,0.3-2.1-0.5-2.4-2.3c-0.3-1.8,0.3-3.2,1.5-3.6
			C581.7,555.3,582.7,556.2,583,557.9z M580.2,558.8c0.2,1,0.5,1.6,1,1.5c0.5-0.1,0.6-0.9,0.5-1.9c-0.1-0.8-0.5-1.6-1-1.5
			C580.2,557.1,580.1,558,580.2,558.8z"/>
		<path class="st11" d="M584.1,554.7c0.4,1,0.6,1.5,1,2.4c0.2,0.4,0.3,0.9,0.4,1.3c0,0,0,0,0,0c0-0.5,0-0.9,0-1.4c0-1.1,0-1.7,0-2.8
			c0.5-0.2,0.7-0.2,1.2-0.4c-0.2,2.4-0.2,3.6-0.4,6.1c-0.5,0.2-0.7,0.2-1.2,0.4c-0.9-2.1-1.4-3.1-2.3-5.2
			C583.3,554.9,583.6,554.9,584.1,554.7z"/>
		<path class="st11" d="M588.7,556.7c0.2,0.7,0.7,0.9,1.3,0.7c0.4-0.1,0.7-0.3,1-0.6c0.1,0.4,0.2,0.7,0.4,1.1
			c-0.4,0.4-0.8,0.7-1.3,0.8c-1.3,0.5-2.2-0.4-2.5-2.2c-0.2-1.4,0.1-3.2,1.4-3.6c1.2-0.4,1.9,0.8,2.2,2.2c0.1,0.3,0.1,0.6,0.1,0.7
			C590.2,556.2,589.7,556.4,588.7,556.7z M589.9,555c-0.1-0.4-0.3-1.1-0.9-0.9c-0.5,0.2-0.6,0.9-0.5,1.4
			C589,555.3,589.3,555.2,589.9,555z"/>
		<path class="st11" d="M591.6,554c-0.1-0.7-0.2-1.3-0.4-1.8c0.4-0.1,0.6-0.2,1-0.4c0.1,0.3,0.1,0.4,0.2,0.7c0,0,0,0,0,0
			c0.1-0.4,0.4-1.1,1-1.3c0.8-0.3,1.5,0.2,1.8,1.9c0.3,1.3,0.4,2,0.6,3.3c-0.5,0.2-0.7,0.3-1.2,0.5c-0.2-1.2-0.3-1.9-0.6-3.1
			c-0.1-0.7-0.4-1.1-0.8-1c-0.3,0.1-0.5,0.5-0.5,0.9c0,0.1,0,0.3,0,0.5c0.2,1.3,0.4,1.9,0.6,3.2c-0.5,0.2-0.7,0.3-1.2,0.4
			C592,556.3,591.9,555.5,591.6,554z"/>
		<path class="st11" d="M597.4,553.6c0.2,0.7,0.7,0.9,1.3,0.6c0.4-0.2,0.7-0.4,1-0.6c0.2,0.4,0.2,0.7,0.4,1.1
			c-0.4,0.4-0.8,0.7-1.3,0.9c-1.3,0.5-2.3-0.3-2.6-2.1c-0.3-1.4,0.1-3.2,1.4-3.7c1.2-0.5,2,0.7,2.3,2.1c0.1,0.3,0.1,0.6,0.1,0.7
			C598.9,553,598.4,553.2,597.4,553.6z M598.6,551.8c-0.1-0.4-0.3-1.1-0.9-0.9c-0.5,0.2-0.6,0.9-0.5,1.4
			C597.8,552.1,598.1,552,598.6,551.8z"/>
		<path class="st11" d="M600.8,553c0.3,0.1,0.8,0.2,1.1,0c0.4-0.1,0.5-0.4,0.4-0.7c-0.1-0.3-0.2-0.4-0.7-0.4
			c-0.9-0.1-1.3-0.6-1.4-1.3c-0.2-1,0.3-2.1,1.2-2.4c0.4-0.2,0.9-0.2,1.1-0.1c0,0.5,0,0.8,0,1.3c-0.2-0.1-0.6-0.1-0.9,0
			c-0.3,0.1-0.4,0.4-0.4,0.6c0.1,0.3,0.2,0.3,0.7,0.4c0.8,0.1,1.2,0.5,1.4,1.3c0.2,1-0.2,2.1-1.3,2.5c-0.5,0.2-1,0.2-1.3,0.1
			C600.8,553.8,600.8,553.5,600.8,553z"/>
		<path class="st11" d="M606,546.5c0.5,1,0.7,1.5,1.1,2.5c0.1,0.3,0.3,0.7,0.4,1c0,0,0,0,0,0c0-0.3,0-0.8,0-1.1c0-1.2,0-1.8-0.1-2.9
			c0.5-0.2,0.8-0.3,1.3-0.6c0,1.6-0.1,2.4-0.1,4.1c-0.1,2.5-0.3,3.5-0.7,4.3c-0.3,0.7-0.8,1.1-1.1,1.3c-0.2-0.6-0.3-0.8-0.5-1.4
			c0.1-0.1,0.3-0.3,0.5-0.5c0.1-0.2,0.3-0.6,0.4-0.9c0-0.1,0-0.2,0-0.3c0-0.1,0-0.1-0.1-0.3c-1-1.8-1.5-2.7-2.4-4.5
			C605.2,546.8,605.5,546.7,606,546.5z"/>
		<path class="st11" d="M612.9,547.4c0,0.9,0,1.3,0,2.2c-0.5,0.2-0.8,0.3-1.3,0.5c0.1-3.4,0.1-5.1,0.1-8.5c0.6-0.3,0.9-0.4,1.6-0.7
			c1.3,2.8,2,4.2,3.3,6.9c-0.5,0.2-0.8,0.4-1.3,0.6c-0.3-0.7-0.5-1.1-0.8-1.8C613.9,547,613.6,547.2,612.9,547.4z M614.1,545.5
			c-0.3-0.6-0.4-0.9-0.7-1.5c-0.2-0.4-0.4-0.9-0.6-1.4c0,0,0,0,0,0c0,0.5,0.1,1.1,0.1,1.6c0,0.7,0,1.1,0,1.8
			C613.3,545.9,613.6,545.7,614.1,545.5z"/>
		<path class="st11" d="M619.4,537.8c0.6,2.6,0.8,3.9,1.4,6.5c0.1,0.6,0.3,1.3,0.4,1.7c-0.4,0.2-0.7,0.3-1.1,0.5
			c-0.1-0.3-0.1-0.5-0.2-0.8c0,0,0,0,0,0c-0.1,0.8-0.5,1.3-1.1,1.5c-1,0.4-1.9-0.4-2.3-2.1c-0.4-1.9,0.2-3.4,1.2-3.8
			c0.5-0.2,0.9-0.2,1.2,0.1c0,0,0,0,0,0c-0.3-1.2-0.4-1.8-0.6-3C618.7,538.1,618.9,538,619.4,537.8z M619.2,543.3
			c0-0.1-0.1-0.2-0.1-0.3c-0.2-0.4-0.5-0.7-0.9-0.5c-0.6,0.3-0.7,1.1-0.5,2c0.2,1,0.6,1.4,1.2,1.2c0.4-0.2,0.6-0.6,0.5-1.2
			c0-0.1,0-0.3,0-0.4C619.3,543.7,619.3,543.6,619.2,543.3z"/>
		<path class="st11" d="M625.5,541.9c0.2,0.7,0.3,1.3,0.4,1.8c-0.4,0.2-0.7,0.3-1.1,0.5c-0.1-0.3-0.1-0.5-0.2-0.8c0,0,0,0,0,0
			c-0.1,0.4-0.4,1.2-1.1,1.5c-0.8,0.4-1.6-0.1-1.9-1.8c-0.3-1.3-0.4-2-0.6-3.3c0.5-0.2,0.7-0.3,1.2-0.6c0.2,1.2,0.4,1.8,0.6,3
			c0.2,0.8,0.4,1.2,0.9,1c0.3-0.2,0.5-0.6,0.5-0.9c0-0.1,0-0.3,0-0.4c-0.3-1.3-0.4-2-0.7-3.4c0.5-0.2,0.7-0.4,1.2-0.6
			C625.1,539.6,625.2,540.3,625.5,541.9z"/>
		<path class="st11" d="M625.3,535c0.5-0.2,0.7-0.4,1.2-0.6c0.7,3.3,1,4.9,1.7,8.2c-0.5,0.2-0.8,0.4-1.3,0.6
			C626.3,539.9,625.9,538.3,625.3,535z"/>
		<path class="st11" d="M629.1,534.1c0.1,0.6,0.2,1,0.3,1.6c0.4-0.2,0.5-0.3,0.9-0.4c0.1,0.5,0.2,0.8,0.3,1.3
			c-0.4,0.2-0.5,0.3-0.9,0.4c0.2,0.8,0.2,1.2,0.4,2.1c0.1,0.7,0.3,0.9,0.7,0.8c0.2-0.1,0.3-0.2,0.4-0.2c0.1,0.5,0.2,0.8,0.3,1.3
			c-0.2,0.2-0.4,0.4-0.8,0.6c-0.4,0.2-0.8,0.2-1,0c-0.3-0.2-0.5-0.7-0.7-1.5c-0.2-0.9-0.3-1.4-0.4-2.3c-0.2,0.1-0.3,0.2-0.5,0.3
			c-0.1-0.5-0.1-0.8-0.3-1.3c0.2-0.1,0.3-0.2,0.5-0.3c-0.1-0.5-0.1-0.7-0.2-1.2C628.5,534.7,628.7,534.5,629.1,534.1z"/>
		<path class="st11" d="M635.7,535.7c0.4,2.1-0.5,3.6-1.6,4.2c-1.2,0.6-2.3-0.1-2.7-1.9c-0.3-1.9,0.3-3.4,1.6-4.1
			C634.3,533.2,635.3,534,635.7,535.7z M632.7,537.3c0.2,1,0.6,1.6,1.2,1.3c0.5-0.2,0.7-1.1,0.5-2.1c-0.2-0.9-0.6-1.6-1.1-1.3
			C632.6,535.4,632.6,536.4,632.7,537.3z"/>
		<path class="st11" d="M636.7,536.7c0.3,0.1,0.8,0.1,1.2-0.1c0.4-0.2,0.5-0.5,0.5-0.8c-0.1-0.3-0.2-0.4-0.7-0.4
			c-0.9,0-1.4-0.5-1.5-1.2c-0.2-1.1,0.3-2.2,1.3-2.7c0.5-0.2,0.9-0.3,1.2-0.3c0,0.5,0,0.8,0,1.4c-0.2,0-0.6-0.1-1,0.1
			c-0.3,0.2-0.5,0.4-0.4,0.7c0,0.3,0.2,0.3,0.8,0.3c0.9,0,1.3,0.4,1.4,1.2c0.2,1.1-0.3,2.2-1.5,2.8c-0.5,0.3-1.1,0.3-1.4,0.2
			C636.7,537.6,636.7,537.3,636.7,536.7z"/>
	</g>
</g>
<g>
	<g>
		<path class="st2" d="M476,536.5c-0.7,0.1-2.1,0.1-3.5-0.3c-1.9-0.6-3.4-1.6-4.3-2.9c-1-1.3-1.5-3-1.4-4.6c0.2-3.7,2.8-4.7,6.1-3.6
			c1.3,0.4,2.2,1,2.7,1.4c-0.2,0.7-0.3,1.1-0.5,1.8c-0.5-0.4-1.2-0.8-2.3-1.2c-1.9-0.6-3.4,0-3.5,2.4c-0.1,2.3,1.3,4.1,3.2,4.7
			c0.5,0.2,1,0.2,1.2,0.2c0-0.9,0-1.4,0-2.3c-0.6-0.2-1-0.3-1.6-0.5c0-0.8,0-1.2,0-1.9c1.5,0.5,2.3,0.7,3.8,1.1
			C475.9,533.1,475.9,534.2,476,536.5z"/>
		<path class="st2" d="M479.6,534.9c0,1,1,1.8,2.1,2c0.8,0.2,1.4,0.2,2,0.2c0.1,0.7,0.2,1,0.3,1.7c-0.8,0.2-1.7,0.1-2.7-0.1
			c-2.6-0.6-4-2.7-3.9-5.1c0.1-2,1.4-3.7,3.9-3c2.3,0.6,3.1,2.7,3.1,4.6c0,0.4,0,0.8-0.1,0.9C482.5,535.7,481.5,535.5,479.6,534.9z
			 M482.3,534c0-0.6-0.2-1.6-1.2-1.9c-0.9-0.3-1.4,0.5-1.5,1.2C480.7,533.6,481.3,533.7,482.3,534z"/>
		<path class="st2" d="M485.8,537.5c0.4,0.4,1.3,0.9,1.9,1c0.7,0.2,1,0,1-0.4s-0.2-0.6-1-1.1c-1.5-0.9-2-1.9-1.9-2.8
			c0.1-1.4,1.3-2.2,3-1.8c0.8,0.2,1.5,0.5,1.9,0.8c-0.2,0.6-0.3,0.9-0.4,1.5c-0.3-0.2-0.9-0.6-1.5-0.7c-0.5-0.1-0.9,0-0.9,0.4
			c0,0.4,0.3,0.6,1.1,1.1c1.3,0.8,1.9,1.6,1.9,2.7c0,1.4-1.1,2.3-3.2,1.8c-1-0.2-1.8-0.6-2.4-1.1
			C485.5,538.4,485.6,538.1,485.8,537.5z"/>
		<path class="st2" d="M495.1,531.7c-0.1,0.9-0.1,1.3-0.1,2.1c0.6,0.1,0.9,0.2,1.5,0.2c0,0.7,0,1-0.1,1.7c-0.6-0.1-0.9-0.1-1.5-0.2
			c-0.1,1.1-0.1,1.6-0.1,2.7c0,0.9,0.2,1.4,0.8,1.5c0.3,0,0.5,0,0.7,0c0,0.7,0,1.1,0,1.8c-0.3,0.1-0.8,0.1-1.5,0
			c-0.7-0.1-1.3-0.5-1.7-0.9c-0.4-0.5-0.6-1.3-0.5-2.4c0.1-1.2,0.1-1.8,0.2-3.1c-0.4-0.1-0.6-0.1-0.9-0.2c0-0.7,0.1-1,0.1-1.7
			c0.4,0.1,0.6,0.1,0.9,0.2c0-0.6,0.1-1,0.1-1.6C493.8,531.8,494.2,531.7,495.1,531.7z"/>
		<path class="st2" d="M500.2,532.6c0,0.6-0.5,1.1-1.2,1c-0.7-0.1-1-0.7-1-1.3c0.1-0.7,0.5-1.1,1.2-1
			C499.8,531.4,500.2,531.9,500.2,532.6z M497.5,541.8c0.1-3,0.2-4.5,0.4-7.5c0.8,0.1,1.3,0.2,2.1,0.3c-0.1,3-0.2,4.5-0.2,7.5
			C498.9,542,498.4,541.9,497.5,541.8z"/>
		<path class="st2" d="M508.5,539.3c0,2.7-1.8,3.9-3.7,3.7c-2.1-0.2-3.6-2-3.5-4.4c0.2-2.4,1.7-3.7,3.9-3.4
			C507.1,535.4,508.5,537,508.5,539.3z M507.3,532.3c-0.7,0.9-1,1.3-1.7,2.1c-0.6-0.1-0.9-0.1-1.4-0.2c0.5-0.9,0.8-1.3,1.3-2.2
			C506.2,532.2,506.6,532.2,507.3,532.3z M503.5,538.8c-0.1,1.3,0.4,2.3,1.3,2.4c0.9,0.1,1.4-0.8,1.4-2.1c0-1.1-0.3-2.3-1.3-2.4
			C504,536.7,503.5,537.8,503.5,538.8z"/>
		<path class="st2" d="M509.9,538.1c0.1-0.9,0.1-1.7,0.1-2.4c0.7,0.1,1.1,0.1,1.8,0.2c0,0.4,0,0.6,0.1,1c0,0,0,0,0,0
			c0.3-0.4,1-1.1,2.1-1c1.3,0.1,2.3,1.1,2.3,3.3c0,1.8,0,2.6,0.1,4.4c-0.9,0-1.3,0-2.2-0.1c0-1.7,0-2.5,0-4.1c0-1-0.3-1.6-1-1.7
			c-0.6,0-0.9,0.4-1.1,0.8c-0.1,0.1-0.1,0.4-0.1,0.6c-0.1,1.7-0.1,2.6-0.1,4.3c-0.9-0.1-1.3-0.1-2.2-0.2
			C509.8,541.2,509.8,540.2,509.9,538.1z"/>
		<path class="st2" d="M523.1,541.2c-0.3,1-0.4,1.6-0.7,2.6c-0.9,0-1.4-0.1-2.3-0.1c1.3-4,1.9-6,3-10.1c1,0,1.5,0,2.5,0
			c1.1,4.1,1.8,6.1,3.2,10.1c-0.9,0.1-1.4,0.1-2.3,0.1c-0.3-1-0.5-1.6-0.8-2.6C524.7,541.2,524.2,541.2,523.1,541.2z M525.4,539.5
			c-0.2-0.9-0.4-1.3-0.6-2.2c-0.2-0.6-0.3-1.4-0.5-2c0,0,0,0,0,0c-0.1,0.6-0.3,1.4-0.4,2c-0.2,0.9-0.3,1.3-0.5,2.2
			C524.2,539.5,524.6,539.5,525.4,539.5z"/>
		<path class="st2" d="M535,543.3c-0.4,0.2-1.1,0.4-1.9,0.5c-2.2,0.1-3.7-1.4-3.7-3.7c0-2.2,1.3-3.9,3.7-4.1c0.5,0,1.1,0,1.5,0.2
			c-0.1,0.7-0.1,1-0.2,1.7c-0.2-0.1-0.6-0.2-1.1-0.1c-1.1,0.1-1.7,1-1.7,2.2c0,1.4,0.9,2.1,1.9,2c0.5,0,0.9-0.2,1.2-0.3
			C534.7,542.3,534.8,542.7,535,543.3z"/>
		<path class="st2" d="M540.1,543.2c-0.1-0.3-0.1-0.4-0.2-0.7c0,0,0,0,0,0c-0.4,0.6-1.1,1-1.9,1.1c-1.4,0.1-2.3-1-2.3-2.2
			c0-1.9,1.5-2.9,3.8-3.1c0,0,0-0.1,0-0.1c0-0.4-0.2-0.9-1.3-0.9c-0.7,0.1-1.4,0.4-1.8,0.7c-0.2-0.6-0.3-0.9-0.4-1.5
			c0.4-0.3,1.3-0.7,2.5-0.8c2.1-0.2,3,1.2,3.1,2.9c0.1,1,0.1,1.6,0.2,2.6c0.1,0.7,0.1,1.4,0.2,1.8
			C541.2,543.1,540.8,543.1,540.1,543.2z M539.6,539.7c-1.1,0.1-1.9,0.4-1.9,1.3c0,0.6,0.4,0.9,0.9,0.8c0.5,0,0.9-0.5,1.1-1
			c0-0.1,0-0.3,0-0.4C539.6,540.2,539.6,540,539.6,539.7z"/>
		<path class="st2" d="M549,531.1c0.4,3.4,0.6,5.1,1,8.6c0.1,0.8,0.2,1.7,0.3,2.2c-0.8,0.1-1.2,0.2-1.9,0.3
			c-0.1-0.4-0.1-0.7-0.2-1.1c0,0,0,0,0,0c-0.4,0.9-1.2,1.5-2.1,1.6c-1.7,0.2-3-1.2-3.1-3.6c-0.1-2.5,1.2-4.1,2.7-4.3
			c0.8-0.1,1.5,0.1,1.8,0.6c0,0,0,0,0,0c-0.2-1.6-0.2-2.4-0.4-4C547.9,531.3,548.3,531.3,549,531.1z M547.7,538c0-0.1,0-0.3-0.1-0.4
			c-0.2-0.6-0.7-1.1-1.3-1c-0.9,0.1-1.4,1.1-1.3,2.3c0.1,1.3,0.7,2,1.6,1.9c0.6-0.1,1.1-0.6,1.1-1.3c0-0.2,0-0.3,0-0.5
			C547.8,538.6,547.8,538.4,547.7,538z"/>
		<path class="st2" d="M553.4,538.4c0.2,1,1.1,1.3,2.1,1.1c0.7-0.1,1.3-0.4,1.9-0.7c0.2,0.6,0.3,0.9,0.5,1.5c-0.7,0.5-1.6,0.8-2.5,1
			c-2.4,0.5-3.9-0.9-4-3.2c-0.1-1.9,0.7-4.1,3-4.6c2.1-0.4,3.2,1.2,3.5,3.1c0.1,0.4,0.1,0.8,0.1,0.9
			C556,537.9,555.1,538.1,553.4,538.4z M555.7,536.4c-0.1-0.6-0.4-1.5-1.4-1.3c-0.9,0.2-1.1,1.1-1.1,1.7
			C554.2,536.7,554.7,536.6,555.7,536.4z M556,530c-0.5,1.1-0.8,1.6-1.3,2.7c-0.6,0.1-0.8,0.2-1.4,0.3c0.4-1,0.5-1.5,0.9-2.5
			C554.9,530.2,555.3,530.1,556,530z"/>
		<path class="st2" d="M559,535c-0.1-0.9-0.2-1.7-0.3-2.4c0.7-0.1,1.1-0.2,1.8-0.3c0.1,0.4,0.1,0.6,0.2,1c0,0,0,0,0,0
			c0.2-0.5,0.8-1.4,1.9-1.6c0.9-0.2,1.6,0.1,2,0.8c0,0,0,0,0,0c0.2-0.5,0.5-0.8,0.7-1.2c0.3-0.4,0.7-0.6,1.2-0.8
			c1.3-0.4,2.5,0.2,2.9,2.5c0.3,1.8,0.5,2.6,0.7,4.4c-0.9,0.3-1.3,0.4-2.2,0.7c-0.2-1.6-0.3-2.5-0.6-4.1c-0.2-1.1-0.6-1.6-1.3-1.4
			c-0.5,0.1-0.8,0.6-0.9,1.1c0,0.2,0,0.4,0,0.6c0.2,1.8,0.4,2.6,0.6,4.4c-0.9,0.2-1.3,0.3-2.2,0.6c-0.2-1.7-0.3-2.5-0.4-4.2
			c-0.1-1-0.5-1.5-1.2-1.4c-0.5,0.1-0.8,0.7-0.9,1.1c-0.1,0.2,0,0.4,0,0.6c0.2,1.8,0.2,2.6,0.4,4.4c-0.9,0.2-1.3,0.3-2.2,0.4
			C559.3,538.1,559.2,537.1,559,535z"/>
		<path class="st2" d="M572,537c-0.3-3.1-0.5-4.6-1-7.6c0.9-0.3,1.3-0.4,2.1-0.7c0.5,3,0.7,4.5,1.1,7.6
			C573.4,536.6,573,536.7,572,537z M572.9,526.6c0.1,0.6-0.2,1.3-0.9,1.6c-0.7,0.2-1.2-0.2-1.3-0.8c-0.1-0.7,0.2-1.3,0.9-1.5
			C572.3,525.6,572.8,525.9,572.9,526.6z"/>
		<path class="st2" d="M581.7,533.5c-0.4,0.4-1.1,0.8-2,1.2c-2.4,0.9-4.1-0.2-4.4-2.6c-0.3-2.2,0.8-4.5,3.5-5.5
			c0.6-0.2,1.2-0.4,1.7-0.4c0,0.8,0,1.1,0,1.9c-0.3,0-0.7,0-1.3,0.3c-1.2,0.5-1.8,1.6-1.6,2.9c0.2,1.4,1.2,1.8,2.3,1.4
			c0.5-0.2,1-0.5,1.3-0.8C581.3,532.5,581.4,532.8,581.7,533.5z"/>
		<path class="st2" d="M587.2,531.4c-0.1-0.3-0.1-0.4-0.2-0.7c0,0,0,0,0,0c-0.4,0.8-1.1,1.5-2,1.9c-1.5,0.6-2.6-0.2-2.7-1.5
			c-0.2-2,1.3-3.6,3.9-4.8c0,0,0-0.1,0-0.1c-0.1-0.4-0.4-0.9-1.5-0.4c-0.7,0.3-1.5,0.9-1.9,1.4c-0.3-0.6-0.4-0.8-0.6-1.4
			c0.5-0.5,1.4-1.3,2.7-1.8c2.4-1.1,3.5,0,3.8,1.9c0.2,1.1,0.3,1.6,0.5,2.7c0.1,0.8,0.3,1.5,0.4,1.9
			C588.5,530.9,588,531.1,587.2,531.4z M586.4,527.9c-1.2,0.5-2.1,1.2-2,2.2c0.1,0.6,0.5,0.8,1,0.6c0.6-0.2,1-0.9,1.1-1.4
			c0-0.1,0-0.3,0-0.4C586.4,528.4,586.4,528.2,586.4,527.9z"/>
	</g>
</g>
<path class="st14" d="M523,443.9l-108.1,41.4c-5.2-11.7-8.1-24.2-8.5-36.9c-2.2-56.4,43.5-105.6,104-112.1L523,443.9z"/>
<path id="SVGID_x5F_9_x5F_" class="st1" d="M480.1,587.5c-78.3-45-110.4-136-71.7-203.2S541.8,299,620.1,344s110.4,136,71.7,203.2
	S558.4,632.5,480.1,587.5z"/>
<text><textPath  xlink:href="#SVGID_x5F_9_x5F_" startOffset="101.0417%">
<tspan  class="st2 st8" style="font-size:11.2623px;">Secretaria           Servicios Generales           Equipo Contable</tspan></textPath>
</text>
<path id="SVGID_x5F_10_x5F_" class="st1" d="M429.2,466.7c-15.2-43.7,10.5-92.4,57.3-108.7s97.1,6,112.3,49.8s-10.5,92.4-57.3,108.7
	C494.6,532.8,444.4,510.5,429.2,466.7z"/>
<text><textPath  xlink:href="#SVGID_x5F_10_x5F_" startOffset="85.1533%">
<tspan  class="st2 st8" style="font-size:12.5138px;">Gestión Directiva - Administrativa</tspan></textPath>
</text>
<path class="st14" d="M523,443.9l17.7-107.1c55.1,7.6,96.9,50.8,98.9,102.5c0.6,15.6-2.4,31.1-8.9,45.5L523,443.9z"/>
<path id="SVGID_x5F_11_x5F_" class="st1" d="M443.6,429.1c6.8-45.8,52.1-77,101.2-69.7c49,7.3,83.3,50.4,76.4,96.2
	s-52.1,77-101.2,69.7S436.8,474.9,443.6,429.1z"/>
<text><textPath  xlink:href="#SVGID_x5F_11_x5F_" startOffset="119.3143%">
<tspan  class="st2 st8" style="font-size:12.5138px;">Gestión Comunidad</tspan></textPath>
</text>
<ellipse class="st15" cx="522.7" cy="443.5" rx="89.8" ry="83.8"/>
<ellipse class="st6" cx="524.3" cy="443.5" rx="62.3" ry="58.2"/>
<path id="SVGID_x5F_12_x5F_" class="st1" d="M575,443.5c0,32.1-27.9,58.2-62.3,58.2s-62.3-26.1-62.3-58.2s27.9-58.2,62.3-58.2
	S575,411.4,575,443.5z"/>
<text><textPath  xlink:href="#SVGID_x5F_12_x5F_" startOffset="108.454%">
<tspan  class="st2 st8" style="font-size:12.5137px;">                                             Consejo Académico</tspan></textPath>
</text>
<path id="SVGID_x5F_13_x5F_" class="st1" d="M495.4,393.5c25.2-19.9,62.9-14.2,84.3,12.7c21.3,27,18.2,65-7,84.9
	s-62.9,14.2-84.3-12.7S470.2,413.4,495.4,393.5z"/>
<text><textPath  xlink:href="#SVGID_x5F_13_x5F_" startOffset="119.2953%">
<tspan  class="st2 st8" style="font-size:12.5137px;">Consejo Directivo</tspan></textPath>
</text>
<path id="SVGID_x5F_14_x5F_" class="st1" d="M462.1,437.4c-0.8-32.1,26.4-58.8,60.8-59.7s62.9,24.4,63.7,56.5s-26.4,58.8-60.8,59.7
	S462.9,469.5,462.1,437.4z"/>
<text><textPath  xlink:href="#SVGID_x5F_14_x5F_" startOffset="101.109%">
<tspan  class="st2 st8" style="font-size:12.5137px;">RECTOR</tspan></textPath>
</text>
<text transform="matrix(0.9605 0 0 1 479.4351 428.7734)"><tspan x="0" y="0" class="st16 st8 st17">Gobierno</tspan><tspan x="11.3" y="26.6" class="st16 st8 st17">Escolar</tspan><tspan x="20.2" y="53.2" class="st16 st8 st17">M.J.B</tspan></text>
<path id="SVGID_x5F_15_x5F_" class="st1" d="M746.3,440.1c0,113.8-98.7,206-220.6,206s-220.6-92.2-220.6-206s98.7-206,220.6-206
	S746.3,326.3,746.3,440.1z"/>
<text><textPath  xlink:href="#SVGID_x5F_15_x5F_" startOffset="100.533%">
<tspan  class="st8" style="font-size:21.0493px;">ESTUDIANTES                                                                                                    </tspan><tspan  class="st3 st8" style="font-size:21.0493px;">    ESTUDIANTES</tspan><tspan  class="st8" style="font-size:21.0493px;">                                                                                                        ESTUDIANTES</tspan></textPath>
</text>
<g>
	<g>
		<path d="M473.5,652.7c-2.1-0.4-3.2-0.6-5.3-1.2c-0.2,1.4-0.3,2-0.5,3.4c2.4,0.6,3.6,0.8,6.1,1.3c-0.1,1.1-0.2,1.6-0.2,2.7
			c-3.8-0.7-5.7-1.1-9.6-2.2c0.9-5.7,1.4-8.6,2.8-14.1c3.4,0.9,5,1.3,8.4,2c-0.2,1-0.3,1.6-0.4,2.6c-2.1-0.4-3.2-0.7-5.4-1.2
			c-0.2,1.2-0.3,1.8-0.6,2.9c2.1,0.5,3.1,0.7,5.2,1.2C473.7,651.1,473.6,651.6,473.5,652.7z"/>
		<path d="M476.1,656c0.8,0.6,2.1,1.4,3.5,1.6c1.5,0.3,2.4-0.2,2.5-1.1c0.1-0.9-0.5-1.5-2.1-2.4c-2.2-1.3-3.5-2.9-3.1-5
			c0.5-2.4,2.8-3.8,5.9-3.2c1.5,0.3,2.5,0.8,3.3,1.3c-0.4,1-0.6,1.5-1,2.5c-0.5-0.4-1.4-0.9-2.7-1.1c-1.3-0.2-2.1,0.3-2.2,1
			c-0.2,0.9,0.6,1.5,2.2,2.5c2.3,1.4,3.3,2.8,3.2,4.8c-0.2,2.4-2.3,4.2-6.3,3.5c-1.7-0.3-3.3-1.1-4.1-1.7
			C475.5,657.5,475.7,657,476.1,656z"/>
		<path d="M491.4,650.3c-1.4-0.2-2.1-0.3-3.6-0.6c0.2-1.1,0.3-1.6,0.5-2.7c4,0.7,6,1,10,1.4c-0.1,1.1-0.2,1.6-0.3,2.7
			c-1.4-0.1-2.2-0.2-3.6-0.4c-0.6,4.6-0.8,6.9-1.2,11.5c-1.3-0.2-2-0.3-3.3-0.5C490.5,657.2,490.8,654.9,491.4,650.3z"/>
		<path d="M503.5,649c-0.4,3.3-0.6,4.9-0.9,8.2c-0.3,2.5,0.6,3.8,2.2,4c1.7,0.2,2.7-1,2.8-3.5c0.2-3.3,0.3-4.9,0.6-8.2
			c1.1,0.1,1.7,0.1,2.9,0.2c-0.2,3.2-0.2,4.8-0.3,8c-0.1,4.4-2.4,6.5-6.2,6.1c-3.6-0.3-5.6-2.7-5-7.2c0.4-3.2,0.6-4.7,1.1-7.9
			C501.7,648.8,502.3,648.9,503.5,649z"/>
		<path d="M514.2,650c1.1-0.1,2.4-0.1,3.9,0c2.4,0.1,3.9,0.6,5.1,1.7c1.3,1.1,2.2,2.9,2.2,5.4c0,2.8-0.9,4.7-2.2,5.8
			c-1.5,1.2-3.8,1.8-6.6,1.6c-1.7-0.1-2.9-0.3-3.7-0.5C513.4,658.4,513.7,655.6,514.2,650z M516.3,661.9c0.3,0.1,0.7,0.1,1.1,0.1
			c2.9,0.2,4.7-1.4,4.8-4.9c0-3-1.5-4.6-4-4.7c-0.6,0-1.1,0-1.3,0.1C516.7,656.3,516.6,658.1,516.3,661.9z"/>
		<path d="M530.6,650.3c0.1,5.8,0.1,8.7,0.1,14.4c-1.3,0-1.9,0-3.2,0c0.1-5.8,0.2-8.6,0.3-14.4C528.9,650.3,529.5,650.3,530.6,650.3
			z"/>
		<path d="M536.7,661c-0.4,1.5-0.6,2.2-1,3.7c-1.3,0-2,0-3.4,0c2-5.7,2.8-8.6,4.3-14.4c1.5,0,2.2,0,3.7-0.1
			c1.9,5.7,2.9,8.6,5.1,14.2c-1.4,0.1-2.1,0.1-3.5,0.2c-0.5-1.5-0.8-2.2-1.2-3.7C539.1,661,538.3,661,536.7,661z M540.1,658.5
			c-0.4-1.2-0.6-1.8-0.9-3c-0.3-0.9-0.5-1.9-0.7-2.8c0,0,0,0,0,0c-0.2,0.9-0.3,2-0.5,2.8c-0.3,1.2-0.4,1.8-0.7,3.1
			C538.3,658.5,538.9,658.5,540.1,658.5z"/>
		<path d="M547,664.3c0-5.8-0.1-8.7-0.3-14.5c1.3,0,2-0.1,3.4-0.2c1.2,2.1,1.8,3.1,3.1,5.1c0.9,1.5,1.9,3.2,2.7,4.8c0,0,0,0,0.1,0
			c-0.4-1.9-0.6-3.8-0.8-6c-0.2-1.7-0.3-2.5-0.5-4.2c1.1-0.1,1.6-0.2,2.7-0.3c0.8,5.8,1.1,8.7,1.7,14.5c-1.4,0.2-2.1,0.2-3.5,0.4
			c-1.4-2.1-2.1-3.2-3.4-5.4c-0.9-1.5-1.9-3.3-2.6-5c0,0,0,0-0.1,0c0.2,1.9,0.3,4,0.4,6.3c0.1,1.7,0.1,2.6,0.1,4.4
			C548.8,664.2,548.2,664.3,547,664.3z"/>
		<path d="M563.4,651.2c-1.4,0.2-2.2,0.2-3.6,0.3c-0.1-1.1-0.1-1.7-0.2-2.8c4-0.3,6-0.6,10-1.3c0.2,1.1,0.3,1.6,0.5,2.7
			c-1.5,0.2-2.2,0.4-3.7,0.6c0.6,4.7,0.9,7.1,1.3,11.8c-1.3,0.2-2,0.3-3.3,0.4C564.1,658.2,563.9,655.9,563.4,651.2z"/>
		<path d="M581.4,654.2c-2.1,0.4-3.2,0.6-5.3,0.9c0.2,1.4,0.2,2.1,0.4,3.5c2.4-0.4,3.6-0.6,6.1-1.1c0.2,1.1,0.2,1.6,0.4,2.7
			c-3.9,0.8-5.8,1.1-9.6,1.5c-0.4-5.9-0.7-8.8-1.4-14.6c3.3-0.4,4.9-0.7,8.3-1.4c0.2,1.1,0.3,1.6,0.5,2.7c-2.2,0.4-3.2,0.6-5.4,1
			c0.2,1.2,0.3,1.8,0.4,3c2.1-0.3,3.1-0.5,5.2-0.9C581.1,652.6,581.2,653.1,581.4,654.2z"/>
		<path d="M584.8,656.4c0.9,0.3,2.4,0.5,3.8,0.2c1.6-0.3,2.3-1.1,2.2-2.1c-0.1-0.9-0.9-1.3-2.8-1.6c-2.5-0.4-4.3-1.5-4.5-3.6
			c-0.3-2.5,1.3-4.7,4.5-5.4c1.6-0.3,2.8-0.3,3.7-0.1c0,1.1-0.1,1.7-0.1,2.8c-0.6-0.1-1.7-0.3-3.1,0c-1.4,0.3-1.9,1.1-1.8,1.8
			c0.1,0.9,1,1.2,3,1.5c2.7,0.4,4.2,1.4,4.5,3.5c0.4,2.5-1.3,5.1-5.5,5.9c-1.8,0.3-3.5,0.2-4.4-0.1
			C584.6,658.2,584.7,657.6,584.8,656.4z"/>
	</g>
</g>
</svg>
